<?xml version="1.0" encoding="utf-8" standalone="no"?>
<!DOCTYPE svg PUBLIC "-//W3C//DTD SVG 1.1//EN"
  "http://www.w3.org/Graphics/SVG/1.1/DTD/svg11.dtd">
<svg xmlns:xlink="http://www.w3.org/1999/xlink" width="1080pt" height="288pt" viewBox="0 0 1080 288" xmlns="http://www.w3.org/2000/svg" version="1.1">
 <metadata>
  <rdf:RDF xmlns:dc="http://purl.org/dc/elements/1.1/" xmlns:cc="http://creativecommons.org/ns#" xmlns:rdf="http://www.w3.org/1999/02/22-rdf-syntax-ns#">
   <cc:Work>
    <dc:type rdf:resource="http://purl.org/dc/dcmitype/StillImage"/>
    <dc:date>2024-02-05T11:46:28.093281</dc:date>
    <dc:format>image/svg+xml</dc:format>
    <dc:creator>
     <cc:Agent>
      <dc:title>Matplotlib v3.7.4, https://matplotlib.org/</dc:title>
     </cc:Agent>
    </dc:creator>
   </cc:Work>
  </rdf:RDF>
 </metadata>
 <defs>
  <style type="text/css">*{stroke-linejoin: round; stroke-linecap: butt}</style>
 </defs>
 <g id="figure_1">
  <g id="patch_1">
   <path d="M 0 288 
L 1080 288 
L 1080 0 
L 0 0 
z
" style="fill: #ffffff"/>
  </g>
  <g id="axes_1">
   <g id="patch_2">
    <path d="M 38.66 254.74 
L 1067.04 254.74 
L 1067.04 40.32 
L 38.66 40.32 
z
" style="fill: #ffffff"/>
   </g>
   <g id="matplotlib.axis_1">
    <g id="xtick_1">
     <g id="text_1">
      <!-- TV -->
      <g style="fill: #262626" transform="translate(160.085859 272.598281) scale(0.11 -0.11)">
       <defs>
        <path id="DejaVuSans-54" d="M -19 4666 
L 3928 4666 
L 3928 4134 
L 2272 4134 
L 2272 0 
L 1638 0 
L 1638 4134 
L -19 4134 
L -19 4666 
z
" transform="scale(0.015625)"/>
        <path id="DejaVuSans-56" d="M 1831 0 
L 50 4666 
L 709 4666 
L 2188 738 
L 3669 4666 
L 4325 4666 
L 2547 0 
L 1831 0 
z
" transform="scale(0.015625)"/>
       </defs>
       <use xlink:href="#DejaVuSans-54"/>
       <use xlink:href="#DejaVuSans-56" x="61.083984"/>
      </g>
     </g>
    </g>
    <g id="xtick_2">
     <g id="text_2">
      <!-- Radio -->
      <g style="fill: #262626" transform="translate(408.849219 272.598281) scale(0.11 -0.11)">
       <defs>
        <path id="DejaVuSans-52" d="M 2841 2188 
Q 3044 2119 3236 1894 
Q 3428 1669 3622 1275 
L 4263 0 
L 3584 0 
L 2988 1197 
Q 2756 1666 2539 1819 
Q 2322 1972 1947 1972 
L 1259 1972 
L 1259 0 
L 628 0 
L 628 4666 
L 2053 4666 
Q 2853 4666 3247 4331 
Q 3641 3997 3641 3322 
Q 3641 2881 3436 2590 
Q 3231 2300 2841 2188 
z
M 1259 4147 
L 1259 2491 
L 2053 2491 
Q 2509 2491 2742 2702 
Q 2975 2913 2975 3322 
Q 2975 3731 2742 3939 
Q 2509 4147 2053 4147 
L 1259 4147 
z
" transform="scale(0.015625)"/>
        <path id="DejaVuSans-61" d="M 2194 1759 
Q 1497 1759 1228 1600 
Q 959 1441 959 1056 
Q 959 750 1161 570 
Q 1363 391 1709 391 
Q 2188 391 2477 730 
Q 2766 1069 2766 1631 
L 2766 1759 
L 2194 1759 
z
M 3341 1997 
L 3341 0 
L 2766 0 
L 2766 531 
Q 2569 213 2275 61 
Q 1981 -91 1556 -91 
Q 1019 -91 701 211 
Q 384 513 384 1019 
Q 384 1609 779 1909 
Q 1175 2209 1959 2209 
L 2766 2209 
L 2766 2266 
Q 2766 2663 2505 2880 
Q 2244 3097 1772 3097 
Q 1472 3097 1187 3025 
Q 903 2953 641 2809 
L 641 3341 
Q 956 3463 1253 3523 
Q 1550 3584 1831 3584 
Q 2591 3584 2966 3190 
Q 3341 2797 3341 1997 
z
" transform="scale(0.015625)"/>
        <path id="DejaVuSans-64" d="M 2906 2969 
L 2906 4863 
L 3481 4863 
L 3481 0 
L 2906 0 
L 2906 525 
Q 2725 213 2448 61 
Q 2172 -91 1784 -91 
Q 1150 -91 751 415 
Q 353 922 353 1747 
Q 353 2572 751 3078 
Q 1150 3584 1784 3584 
Q 2172 3584 2448 3432 
Q 2725 3281 2906 2969 
z
M 947 1747 
Q 947 1113 1208 752 
Q 1469 391 1925 391 
Q 2381 391 2643 752 
Q 2906 1113 2906 1747 
Q 2906 2381 2643 2742 
Q 2381 3103 1925 3103 
Q 1469 3103 1208 2742 
Q 947 2381 947 1747 
z
" transform="scale(0.015625)"/>
        <path id="DejaVuSans-69" d="M 603 3500 
L 1178 3500 
L 1178 0 
L 603 0 
L 603 3500 
z
M 603 4863 
L 1178 4863 
L 1178 4134 
L 603 4134 
L 603 4863 
z
" transform="scale(0.015625)"/>
        <path id="DejaVuSans-6f" d="M 1959 3097 
Q 1497 3097 1228 2736 
Q 959 2375 959 1747 
Q 959 1119 1226 758 
Q 1494 397 1959 397 
Q 2419 397 2687 759 
Q 2956 1122 2956 1747 
Q 2956 2369 2687 2733 
Q 2419 3097 1959 3097 
z
M 1959 3584 
Q 2709 3584 3137 3096 
Q 3566 2609 3566 1747 
Q 3566 888 3137 398 
Q 2709 -91 1959 -91 
Q 1206 -91 779 398 
Q 353 888 353 1747 
Q 353 2609 779 3096 
Q 1206 3584 1959 3584 
z
" transform="scale(0.015625)"/>
       </defs>
       <use xlink:href="#DejaVuSans-52"/>
       <use xlink:href="#DejaVuSans-61" x="67.232422"/>
       <use xlink:href="#DejaVuSans-64" x="128.511719"/>
       <use xlink:href="#DejaVuSans-69" x="191.988281"/>
       <use xlink:href="#DejaVuSans-6f" x="219.771484"/>
      </g>
     </g>
    </g>
    <g id="xtick_3">
     <g id="text_3">
      <!-- Newspaper -->
      <g style="fill: #262626" transform="translate(650.536484 272.598281) scale(0.11 -0.11)">
       <defs>
        <path id="DejaVuSans-4e" d="M 628 4666 
L 1478 4666 
L 3547 763 
L 3547 4666 
L 4159 4666 
L 4159 0 
L 3309 0 
L 1241 3903 
L 1241 0 
L 628 0 
L 628 4666 
z
" transform="scale(0.015625)"/>
        <path id="DejaVuSans-65" d="M 3597 1894 
L 3597 1613 
L 953 1613 
Q 991 1019 1311 708 
Q 1631 397 2203 397 
Q 2534 397 2845 478 
Q 3156 559 3463 722 
L 3463 178 
Q 3153 47 2828 -22 
Q 2503 -91 2169 -91 
Q 1331 -91 842 396 
Q 353 884 353 1716 
Q 353 2575 817 3079 
Q 1281 3584 2069 3584 
Q 2775 3584 3186 3129 
Q 3597 2675 3597 1894 
z
M 3022 2063 
Q 3016 2534 2758 2815 
Q 2500 3097 2075 3097 
Q 1594 3097 1305 2825 
Q 1016 2553 972 2059 
L 3022 2063 
z
" transform="scale(0.015625)"/>
        <path id="DejaVuSans-77" d="M 269 3500 
L 844 3500 
L 1563 769 
L 2278 3500 
L 2956 3500 
L 3675 769 
L 4391 3500 
L 4966 3500 
L 4050 0 
L 3372 0 
L 2619 2869 
L 1863 0 
L 1184 0 
L 269 3500 
z
" transform="scale(0.015625)"/>
        <path id="DejaVuSans-73" d="M 2834 3397 
L 2834 2853 
Q 2591 2978 2328 3040 
Q 2066 3103 1784 3103 
Q 1356 3103 1142 2972 
Q 928 2841 928 2578 
Q 928 2378 1081 2264 
Q 1234 2150 1697 2047 
L 1894 2003 
Q 2506 1872 2764 1633 
Q 3022 1394 3022 966 
Q 3022 478 2636 193 
Q 2250 -91 1575 -91 
Q 1294 -91 989 -36 
Q 684 19 347 128 
L 347 722 
Q 666 556 975 473 
Q 1284 391 1588 391 
Q 1994 391 2212 530 
Q 2431 669 2431 922 
Q 2431 1156 2273 1281 
Q 2116 1406 1581 1522 
L 1381 1569 
Q 847 1681 609 1914 
Q 372 2147 372 2553 
Q 372 3047 722 3315 
Q 1072 3584 1716 3584 
Q 2034 3584 2315 3537 
Q 2597 3491 2834 3397 
z
" transform="scale(0.015625)"/>
        <path id="DejaVuSans-70" d="M 1159 525 
L 1159 -1331 
L 581 -1331 
L 581 3500 
L 1159 3500 
L 1159 2969 
Q 1341 3281 1617 3432 
Q 1894 3584 2278 3584 
Q 2916 3584 3314 3078 
Q 3713 2572 3713 1747 
Q 3713 922 3314 415 
Q 2916 -91 2278 -91 
Q 1894 -91 1617 61 
Q 1341 213 1159 525 
z
M 3116 1747 
Q 3116 2381 2855 2742 
Q 2594 3103 2138 3103 
Q 1681 3103 1420 2742 
Q 1159 2381 1159 1747 
Q 1159 1113 1420 752 
Q 1681 391 2138 391 
Q 2594 391 2855 752 
Q 3116 1113 3116 1747 
z
" transform="scale(0.015625)"/>
        <path id="DejaVuSans-72" d="M 2631 2963 
Q 2534 3019 2420 3045 
Q 2306 3072 2169 3072 
Q 1681 3072 1420 2755 
Q 1159 2438 1159 1844 
L 1159 0 
L 581 0 
L 581 3500 
L 1159 3500 
L 1159 2956 
Q 1341 3275 1631 3429 
Q 1922 3584 2338 3584 
Q 2397 3584 2469 3576 
Q 2541 3569 2628 3553 
L 2631 2963 
z
" transform="scale(0.015625)"/>
       </defs>
       <use xlink:href="#DejaVuSans-4e"/>
       <use xlink:href="#DejaVuSans-65" x="74.804688"/>
       <use xlink:href="#DejaVuSans-77" x="136.328125"/>
       <use xlink:href="#DejaVuSans-73" x="218.115234"/>
       <use xlink:href="#DejaVuSans-70" x="270.214844"/>
       <use xlink:href="#DejaVuSans-61" x="333.691406"/>
       <use xlink:href="#DejaVuSans-70" x="394.970703"/>
       <use xlink:href="#DejaVuSans-65" x="458.447266"/>
       <use xlink:href="#DejaVuSans-72" x="519.970703"/>
      </g>
     </g>
    </g>
    <g id="xtick_4">
     <g id="text_4">
      <!-- Sales -->
      <g style="fill: #262626" transform="translate(923.853047 272.598281) scale(0.11 -0.11)">
       <defs>
        <path id="DejaVuSans-53" d="M 3425 4513 
L 3425 3897 
Q 3066 4069 2747 4153 
Q 2428 4238 2131 4238 
Q 1616 4238 1336 4038 
Q 1056 3838 1056 3469 
Q 1056 3159 1242 3001 
Q 1428 2844 1947 2747 
L 2328 2669 
Q 3034 2534 3370 2195 
Q 3706 1856 3706 1288 
Q 3706 609 3251 259 
Q 2797 -91 1919 -91 
Q 1588 -91 1214 -16 
Q 841 59 441 206 
L 441 856 
Q 825 641 1194 531 
Q 1563 422 1919 422 
Q 2459 422 2753 634 
Q 3047 847 3047 1241 
Q 3047 1584 2836 1778 
Q 2625 1972 2144 2069 
L 1759 2144 
Q 1053 2284 737 2584 
Q 422 2884 422 3419 
Q 422 4038 858 4394 
Q 1294 4750 2059 4750 
Q 2388 4750 2728 4690 
Q 3069 4631 3425 4513 
z
" transform="scale(0.015625)"/>
        <path id="DejaVuSans-6c" d="M 603 4863 
L 1178 4863 
L 1178 0 
L 603 0 
L 603 4863 
z
" transform="scale(0.015625)"/>
       </defs>
       <use xlink:href="#DejaVuSans-53"/>
       <use xlink:href="#DejaVuSans-61" x="63.476562"/>
       <use xlink:href="#DejaVuSans-6c" x="124.755859"/>
       <use xlink:href="#DejaVuSans-65" x="152.539062"/>
       <use xlink:href="#DejaVuSans-73" x="214.0625"/>
      </g>
     </g>
    </g>
   </g>
   <g id="matplotlib.axis_2">
    <g id="ytick_1">
     <g id="line2d_1">
      <path d="M 38.66 238.632215 
L 1067.04 238.632215 
" clip-path="url(#p9504586b61)" style="fill: none; stroke: #cccccc; stroke-linecap: round"/>
     </g>
     <g id="text_5">
      <!-- −3 -->
      <g style="fill: #262626" transform="translate(12.943594 242.811355) scale(0.11 -0.11)">
       <defs>
        <path id="DejaVuSans-2212" d="M 678 2272 
L 4684 2272 
L 4684 1741 
L 678 1741 
L 678 2272 
z
" transform="scale(0.015625)"/>
        <path id="DejaVuSans-33" d="M 2597 2516 
Q 3050 2419 3304 2112 
Q 3559 1806 3559 1356 
Q 3559 666 3084 287 
Q 2609 -91 1734 -91 
Q 1441 -91 1130 -33 
Q 819 25 488 141 
L 488 750 
Q 750 597 1062 519 
Q 1375 441 1716 441 
Q 2309 441 2620 675 
Q 2931 909 2931 1356 
Q 2931 1769 2642 2001 
Q 2353 2234 1838 2234 
L 1294 2234 
L 1294 2753 
L 1863 2753 
Q 2328 2753 2575 2939 
Q 2822 3125 2822 3475 
Q 2822 3834 2567 4026 
Q 2313 4219 1838 4219 
Q 1578 4219 1281 4162 
Q 984 4106 628 3988 
L 628 4550 
Q 988 4650 1302 4700 
Q 1616 4750 1894 4750 
Q 2613 4750 3031 4423 
Q 3450 4097 3450 3541 
Q 3450 3153 3228 2886 
Q 3006 2619 2597 2516 
z
" transform="scale(0.015625)"/>
       </defs>
       <use xlink:href="#DejaVuSans-2212"/>
       <use xlink:href="#DejaVuSans-33" x="83.789062"/>
      </g>
     </g>
    </g>
    <g id="ytick_2">
     <g id="line2d_2">
      <path d="M 38.66 213.572633 
L 1067.04 213.572633 
" clip-path="url(#p9504586b61)" style="fill: none; stroke: #cccccc; stroke-linecap: round"/>
     </g>
     <g id="text_6">
      <!-- −2 -->
      <g style="fill: #262626" transform="translate(12.943594 217.751773) scale(0.11 -0.11)">
       <defs>
        <path id="DejaVuSans-32" d="M 1228 531 
L 3431 531 
L 3431 0 
L 469 0 
L 469 531 
Q 828 903 1448 1529 
Q 2069 2156 2228 2338 
Q 2531 2678 2651 2914 
Q 2772 3150 2772 3378 
Q 2772 3750 2511 3984 
Q 2250 4219 1831 4219 
Q 1534 4219 1204 4116 
Q 875 4013 500 3803 
L 500 4441 
Q 881 4594 1212 4672 
Q 1544 4750 1819 4750 
Q 2544 4750 2975 4387 
Q 3406 4025 3406 3419 
Q 3406 3131 3298 2873 
Q 3191 2616 2906 2266 
Q 2828 2175 2409 1742 
Q 1991 1309 1228 531 
z
" transform="scale(0.015625)"/>
       </defs>
       <use xlink:href="#DejaVuSans-2212"/>
       <use xlink:href="#DejaVuSans-32" x="83.789062"/>
      </g>
     </g>
    </g>
    <g id="ytick_3">
     <g id="line2d_3">
      <path d="M 38.66 188.513051 
L 1067.04 188.513051 
" clip-path="url(#p9504586b61)" style="fill: none; stroke: #cccccc; stroke-linecap: round"/>
     </g>
     <g id="text_7">
      <!-- −1 -->
      <g style="fill: #262626" transform="translate(12.943594 192.692192) scale(0.11 -0.11)">
       <defs>
        <path id="DejaVuSans-31" d="M 794 531 
L 1825 531 
L 1825 4091 
L 703 3866 
L 703 4441 
L 1819 4666 
L 2450 4666 
L 2450 531 
L 3481 531 
L 3481 0 
L 794 0 
L 794 531 
z
" transform="scale(0.015625)"/>
       </defs>
       <use xlink:href="#DejaVuSans-2212"/>
       <use xlink:href="#DejaVuSans-31" x="83.789062"/>
      </g>
     </g>
    </g>
    <g id="ytick_4">
     <g id="line2d_4">
      <path d="M 38.66 163.453469 
L 1067.04 163.453469 
" clip-path="url(#p9504586b61)" style="fill: none; stroke: #cccccc; stroke-linecap: round"/>
     </g>
     <g id="text_8">
      <!-- 0 -->
      <g style="fill: #262626" transform="translate(22.16125 167.63261) scale(0.11 -0.11)">
       <defs>
        <path id="DejaVuSans-30" d="M 2034 4250 
Q 1547 4250 1301 3770 
Q 1056 3291 1056 2328 
Q 1056 1369 1301 889 
Q 1547 409 2034 409 
Q 2525 409 2770 889 
Q 3016 1369 3016 2328 
Q 3016 3291 2770 3770 
Q 2525 4250 2034 4250 
z
M 2034 4750 
Q 2819 4750 3233 4129 
Q 3647 3509 3647 2328 
Q 3647 1150 3233 529 
Q 2819 -91 2034 -91 
Q 1250 -91 836 529 
Q 422 1150 422 2328 
Q 422 3509 836 4129 
Q 1250 4750 2034 4750 
z
" transform="scale(0.015625)"/>
       </defs>
       <use xlink:href="#DejaVuSans-30"/>
      </g>
     </g>
    </g>
    <g id="ytick_5">
     <g id="line2d_5">
      <path d="M 38.66 138.393887 
L 1067.04 138.393887 
" clip-path="url(#p9504586b61)" style="fill: none; stroke: #cccccc; stroke-linecap: round"/>
     </g>
     <g id="text_9">
      <!-- 1 -->
      <g style="fill: #262626" transform="translate(22.16125 142.573028) scale(0.11 -0.11)">
       <use xlink:href="#DejaVuSans-31"/>
      </g>
     </g>
    </g>
    <g id="ytick_6">
     <g id="line2d_6">
      <path d="M 38.66 113.334305 
L 1067.04 113.334305 
" clip-path="url(#p9504586b61)" style="fill: none; stroke: #cccccc; stroke-linecap: round"/>
     </g>
     <g id="text_10">
      <!-- 2 -->
      <g style="fill: #262626" transform="translate(22.16125 117.513446) scale(0.11 -0.11)">
       <use xlink:href="#DejaVuSans-32"/>
      </g>
     </g>
    </g>
    <g id="ytick_7">
     <g id="line2d_7">
      <path d="M 38.66 88.274723 
L 1067.04 88.274723 
" clip-path="url(#p9504586b61)" style="fill: none; stroke: #cccccc; stroke-linecap: round"/>
     </g>
     <g id="text_11">
      <!-- 3 -->
      <g style="fill: #262626" transform="translate(22.16125 92.453864) scale(0.11 -0.11)">
       <use xlink:href="#DejaVuSans-33"/>
      </g>
     </g>
    </g>
    <g id="ytick_8">
     <g id="line2d_8">
      <path d="M 38.66 63.215141 
L 1067.04 63.215141 
" clip-path="url(#p9504586b61)" style="fill: none; stroke: #cccccc; stroke-linecap: round"/>
     </g>
     <g id="text_12">
      <!-- 4 -->
      <g style="fill: #262626" transform="translate(22.16125 67.394282) scale(0.11 -0.11)">
       <defs>
        <path id="DejaVuSans-34" d="M 2419 4116 
L 825 1625 
L 2419 1625 
L 2419 4116 
z
M 2253 4666 
L 3047 4666 
L 3047 1625 
L 3713 1625 
L 3713 1100 
L 3047 1100 
L 3047 0 
L 2419 0 
L 2419 1100 
L 313 1100 
L 313 1709 
L 2253 4666 
z
" transform="scale(0.015625)"/>
       </defs>
       <use xlink:href="#DejaVuSans-34"/>
      </g>
     </g>
    </g>
   </g>
   <g id="PolyCollection_1">
    <defs>
     <path id="mc43e72a69d" d="M 169.551532 -64.4614 
L 164.863468 -64.4614 
L 163.956694 -65.68413 
L 162.779103 -66.90686 
L 161.281154 -68.12959 
L 159.415014 -69.352321 
L 157.138515 -70.575051 
L 154.419649 -71.797781 
L 151.241181 -73.020511 
L 147.604898 -74.243242 
L 143.534879 -75.465972 
L 139.07924 -76.688702 
L 134.309869 -77.911433 
L 129.31988 -79.134163 
L 124.218783 -80.356893 
L 119.125675 -81.579623 
L 114.161073 -82.802354 
L 109.438229 -84.025084 
L 105.054927 -85.247814 
L 101.086732 -86.470544 
L 97.582525 -87.693275 
L 94.562829 -88.916005 
L 92.021091 -90.138735 
L 89.927651 -91.361466 
L 88.235763 -92.584196 
L 86.888794 -93.806926 
L 85.827559 -95.029656 
L 84.996847 -96.252387 
L 84.350351 -97.475117 
L 83.853514 -98.697847 
L 83.484186 -99.920577 
L 83.231302 -101.143308 
L 83.092073 -102.366038 
L 83.068368 -103.588768 
L 83.162974 -104.811499 
L 83.37635 -106.034229 
L 83.704327 -107.256959 
L 84.136936 -108.479689 
L 84.658358 -109.70242 
L 85.247748 -110.92515 
L 85.8806 -112.14788 
L 86.530243 -113.37061 
L 87.169151 -114.593341 
L 87.769825 -115.816071 
L 88.305163 -117.038801 
L 88.748409 -118.261532 
L 89.072866 -119.484262 
L 89.251635 -120.706992 
L 89.257657 -121.929722 
L 89.06427 -123.152453 
L 88.646399 -124.375183 
L 87.982363 -125.597913 
L 87.056175 -126.820643 
L 85.860085 -128.043374 
L 84.397095 -129.266104 
L 82.683107 -130.488834 
L 80.748427 -131.711565 
L 78.638389 -132.934295 
L 76.412936 -134.157025 
L 74.145092 -135.379755 
L 71.918333 -136.602486 
L 69.822983 -137.825216 
L 67.95179 -139.047946 
L 66.394989 -140.270676 
L 65.235161 -141.493407 
L 64.542298 -142.716137 
L 64.3695 -143.938867 
L 64.749728 -145.161598 
L 65.693967 -146.384328 
L 67.191075 -147.607058 
L 69.209409 -148.829788 
L 71.70014 -150.052519 
L 74.601956 -151.275249 
L 77.846669 -152.497979 
L 81.3651 -153.720709 
L 85.09255 -154.94344 
L 88.973211 -156.16617 
L 92.962985 -157.3889 
L 97.030418 -158.611631 
L 101.155701 -159.834361 
L 105.327982 -161.057091 
L 109.541486 -162.279821 
L 113.791084 -163.502552 
L 118.068045 -164.725282 
L 122.356636 -165.948012 
L 126.632086 -167.170742 
L 130.860191 -168.393473 
L 134.998574 -169.616203 
L 138.999361 -170.838933 
L 142.812821 -172.061664 
L 146.391417 -173.284394 
L 149.693688 -174.507124 
L 152.687448 -175.729854 
L 155.351965 -176.952585 
L 157.678907 -178.175315 
L 159.672095 -179.398045 
L 161.3462 -180.620775 
L 162.724682 -181.843506 
L 163.837296 -183.066236 
L 164.717477 -184.288966 
L 165.399908 -185.511697 
L 169.015092 -185.511697 
L 169.015092 -185.511697 
L 169.697523 -184.288966 
L 170.577704 -183.066236 
L 171.690318 -181.843506 
L 173.0688 -180.620775 
L 174.742905 -179.398045 
L 176.736093 -178.175315 
L 179.063035 -176.952585 
L 181.727552 -175.729854 
L 184.721312 -174.507124 
L 188.023583 -173.284394 
L 191.602179 -172.061664 
L 195.415639 -170.838933 
L 199.416426 -169.616203 
L 203.554809 -168.393473 
L 207.782914 -167.170742 
L 212.058364 -165.948012 
L 216.346955 -164.725282 
L 220.623916 -163.502552 
L 224.873514 -162.279821 
L 229.087018 -161.057091 
L 233.259299 -159.834361 
L 237.384582 -158.611631 
L 241.452015 -157.3889 
L 245.441789 -156.16617 
L 249.32245 -154.94344 
L 253.0499 -153.720709 
L 256.568331 -152.497979 
L 259.813044 -151.275249 
L 262.71486 -150.052519 
L 265.205591 -148.829788 
L 267.223925 -147.607058 
L 268.721033 -146.384328 
L 269.665272 -145.161598 
L 270.0455 -143.938867 
L 269.872702 -142.716137 
L 269.179839 -141.493407 
L 268.020011 -140.270676 
L 266.46321 -139.047946 
L 264.592017 -137.825216 
L 262.496667 -136.602486 
L 260.269908 -135.379755 
L 258.002064 -134.157025 
L 255.776611 -132.934295 
L 253.666573 -131.711565 
L 251.731893 -130.488834 
L 250.017905 -129.266104 
L 248.554915 -128.043374 
L 247.358825 -126.820643 
L 246.432637 -125.597913 
L 245.768601 -124.375183 
L 245.35073 -123.152453 
L 245.157343 -121.929722 
L 245.163365 -120.706992 
L 245.342134 -119.484262 
L 245.666591 -118.261532 
L 246.109837 -117.038801 
L 246.645175 -115.816071 
L 247.245849 -114.593341 
L 247.884757 -113.37061 
L 248.5344 -112.14788 
L 249.167252 -110.92515 
L 249.756642 -109.70242 
L 250.278064 -108.479689 
L 250.710673 -107.256959 
L 251.03865 -106.034229 
L 251.252026 -104.811499 
L 251.346632 -103.588768 
L 251.322927 -102.366038 
L 251.183698 -101.143308 
L 250.930814 -99.920577 
L 250.561486 -98.697847 
L 250.064649 -97.475117 
L 249.418153 -96.252387 
L 248.587441 -95.029656 
L 247.526206 -93.806926 
L 246.179237 -92.584196 
L 244.487349 -91.361466 
L 242.393909 -90.138735 
L 239.852171 -88.916005 
L 236.832475 -87.693275 
L 233.328268 -86.470544 
L 229.360073 -85.247814 
L 224.976771 -84.025084 
L 220.253927 -82.802354 
L 215.289325 -81.579623 
L 210.196217 -80.356893 
L 205.09512 -79.134163 
L 200.105131 -77.911433 
L 195.33576 -76.688702 
L 190.880121 -75.465972 
L 186.810102 -74.243242 
L 183.173819 -73.020511 
L 179.995351 -71.797781 
L 177.276485 -70.575051 
L 174.999986 -69.352321 
L 173.133846 -68.12959 
L 171.635897 -66.90686 
L 170.458306 -65.68413 
L 169.551532 -64.4614 
z
" style="stroke: #484848; stroke-width: 3"/>
    </defs>
    <g clip-path="url(#p9504586b61)">
     <use xlink:href="#mc43e72a69d" x="0" y="288" style="fill: #cb3335; stroke: #484848; stroke-width: 3"/>
    </g>
   </g>
   <g id="PolyCollection_2">
    <defs>
     <path id="mc84fa7d7e3" d="M 427.397438 -67.90985 
L 421.207562 -67.90985 
L 420.038358 -69.1064 
L 418.526877 -70.302951 
L 416.611104 -71.499502 
L 414.230673 -72.696052 
L 411.331532 -73.892603 
L 407.87128 -75.089154 
L 403.824775 -76.285705 
L 399.189443 -77.482255 
L 393.989647 -78.678806 
L 388.279462 -79.875357 
L 382.143286 -81.071907 
L 375.693884 -82.268458 
L 369.067775 -83.465009 
L 362.418124 -84.66156 
L 355.905705 -85.85811 
L 349.688731 -87.054661 
L 343.91256 -88.251212 
L 338.700338 -89.447762 
L 334.145561 -90.644313 
L 330.307289 -91.840864 
L 327.208441 -93.037414 
L 324.837209 -94.233965 
L 323.151245 -95.430516 
L 322.083994 -96.627067 
L 321.552316 -97.823617 
L 321.4645 -99.020168 
L 321.727795 -100.216719 
L 322.254778 -101.413269 
L 322.968073 -102.60982 
L 323.803222 -103.806371 
L 324.709712 -105.002921 
L 325.650405 -106.199472 
L 326.599713 -107.396023 
L 327.540963 -108.592574 
L 328.463415 -109.789124 
L 329.35934 -110.985675 
L 330.221534 -112.182226 
L 331.041518 -113.378776 
L 331.80862 -114.575327 
L 332.50995 -115.771878 
L 333.131258 -116.968429 
L 333.65846 -118.164979 
L 334.079602 -119.36153 
L 334.386919 -120.558081 
L 334.578616 -121.754631 
L 334.660055 -122.951182 
L 334.644048 -124.147733 
L 334.550126 -125.344283 
L 334.402792 -126.540834 
L 334.22893 -127.737385 
L 334.054704 -128.933936 
L 333.902401 -130.130486 
L 333.787697 -131.327037 
L 333.717786 -132.523588 
L 333.690712 -133.720138 
L 333.696035 -134.916689 
L 333.716791 -136.11324 
L 333.732479 -137.309791 
L 333.722672 -138.506341 
L 333.670752 -139.702892 
L 333.567289 -140.899443 
L 333.412616 -142.095993 
L 333.218347 -143.292544 
L 333.007681 -144.489095 
L 332.814553 -145.685645 
L 332.681794 -146.882196 
L 332.658575 -148.078747 
L 332.797437 -149.275298 
L 333.151211 -150.471848 
L 333.770094 -151.668399 
L 334.699061 -152.86495 
L 335.975754 -154.0615 
L 337.628883 -155.258051 
L 339.677143 -156.454602 
L 342.128598 -157.651152 
L 344.980455 -158.847703 
L 348.219146 -160.044254 
L 351.82066 -161.240805 
L 355.751064 -162.437355 
L 359.967205 -163.633906 
L 364.417611 -164.830457 
L 369.043636 -166.027007 
L 373.780896 -167.223558 
L 378.561049 -168.420109 
L 383.313915 -169.61666 
L 387.969906 -170.81321 
L 392.462645 -172.009761 
L 396.73161 -173.206312 
L 400.724609 -174.402862 
L 404.399852 -175.599413 
L 407.727424 -176.795964 
L 410.690021 -177.992514 
L 413.282888 -179.189065 
L 415.512961 -180.385616 
L 417.397355 -181.582167 
L 418.961337 -182.778717 
L 420.236034 -183.975268 
L 421.256072 -185.171819 
L 422.057363 -186.368369 
L 426.547637 -186.368369 
L 426.547637 -186.368369 
L 427.348928 -185.171819 
L 428.368966 -183.975268 
L 429.643663 -182.778717 
L 431.207645 -181.582167 
L 433.092039 -180.385616 
L 435.322112 -179.189065 
L 437.914979 -177.992514 
L 440.877576 -176.795964 
L 444.205148 -175.599413 
L 447.880391 -174.402862 
L 451.87339 -173.206312 
L 456.142355 -172.009761 
L 460.635094 -170.81321 
L 465.291085 -169.61666 
L 470.043951 -168.420109 
L 474.824104 -167.223558 
L 479.561364 -166.027007 
L 484.187389 -164.830457 
L 488.637795 -163.633906 
L 492.853936 -162.437355 
L 496.78434 -161.240805 
L 500.385854 -160.044254 
L 503.624545 -158.847703 
L 506.476402 -157.651152 
L 508.927857 -156.454602 
L 510.976117 -155.258051 
L 512.629246 -154.0615 
L 513.905939 -152.86495 
L 514.834906 -151.668399 
L 515.453789 -150.471848 
L 515.807563 -149.275298 
L 515.946425 -148.078747 
L 515.923206 -146.882196 
L 515.790447 -145.685645 
L 515.597319 -144.489095 
L 515.386653 -143.292544 
L 515.192384 -142.095993 
L 515.037711 -140.899443 
L 514.934248 -139.702892 
L 514.882328 -138.506341 
L 514.872521 -137.309791 
L 514.888209 -136.11324 
L 514.908965 -134.916689 
L 514.914288 -133.720138 
L 514.887214 -132.523588 
L 514.817303 -131.327037 
L 514.702599 -130.130486 
L 514.550296 -128.933936 
L 514.37607 -127.737385 
L 514.202208 -126.540834 
L 514.054874 -125.344283 
L 513.960952 -124.147733 
L 513.944945 -122.951182 
L 514.026384 -121.754631 
L 514.218081 -120.558081 
L 514.525398 -119.36153 
L 514.94654 -118.164979 
L 515.473742 -116.968429 
L 516.09505 -115.771878 
L 516.79638 -114.575327 
L 517.563482 -113.378776 
L 518.383466 -112.182226 
L 519.24566 -110.985675 
L 520.141585 -109.789124 
L 521.064037 -108.592574 
L 522.005287 -107.396023 
L 522.954595 -106.199472 
L 523.895288 -105.002921 
L 524.801778 -103.806371 
L 525.636927 -102.60982 
L 526.350222 -101.413269 
L 526.877205 -100.216719 
L 527.1405 -99.020168 
L 527.052684 -97.823617 
L 526.521006 -96.627067 
L 525.453755 -95.430516 
L 523.767791 -94.233965 
L 521.396559 -93.037414 
L 518.297711 -91.840864 
L 514.459439 -90.644313 
L 509.904662 -89.447762 
L 504.69244 -88.251212 
L 498.916269 -87.054661 
L 492.699295 -85.85811 
L 486.186876 -84.66156 
L 479.537225 -83.465009 
L 472.911116 -82.268458 
L 466.461714 -81.071907 
L 460.325538 -79.875357 
L 454.615353 -78.678806 
L 449.415557 -77.482255 
L 444.780225 -76.285705 
L 440.73372 -75.089154 
L 437.273468 -73.892603 
L 434.374327 -72.696052 
L 431.993896 -71.499502 
L 430.078123 -70.302951 
L 428.566642 -69.1064 
L 427.397438 -67.90985 
z
" style="stroke: #484848; stroke-width: 3"/>
    </defs>
    <g clip-path="url(#p9504586b61)">
     <use xlink:href="#mc84fa7d7e3" x="0" y="288" style="fill: #477ca8; stroke: #484848; stroke-width: 3"/>
    </g>
   </g>
   <g id="PolyCollection_3">
    <defs>
     <path id="m734ed7d1a5" d="M 683.572635 -72.364829 
L 679.222365 -72.364829 
L 677.98384 -74.037242 
L 676.207644 -75.709654 
L 673.750694 -77.382066 
L 670.473049 -79.054478 
L 666.257088 -80.72689 
L 661.029864 -82.399303 
L 654.785214 -84.071715 
L 647.601121 -85.744127 
L 639.647668 -87.416539 
L 631.18187 -89.088951 
L 622.527934 -90.761364 
L 614.044483 -92.433776 
L 606.083515 -94.106188 
L 598.948359 -95.7786 
L 592.858811 -97.451012 
L 587.930595 -99.123425 
L 584.173265 -100.795837 
L 581.506431 -102.468249 
L 579.789768 -104.140661 
L 578.859068 -105.813073 
L 578.5595 -107.485485 
L 578.768621 -109.157898 
L 579.405166 -110.83031 
L 580.424001 -112.502722 
L 581.801499 -114.175134 
L 583.517818 -115.847546 
L 585.542432 -117.519959 
L 587.827151 -119.192371 
L 590.307662 -120.864783 
L 592.911537 -122.537195 
L 595.568806 -124.209607 
L 598.221028 -125.88202 
L 600.82617 -127.554432 
L 603.35867 -129.226844 
L 605.80602 -130.899256 
L 608.16426 -132.571668 
L 610.434606 -134.244081 
L 612.62244 -135.916493 
L 614.738452 -137.588905 
L 616.800662 -139.261317 
L 618.835584 -140.933729 
L 620.877218 -142.606141 
L 622.963405 -144.278554 
L 625.130136 -145.950966 
L 627.405113 -147.623378 
L 629.802091 -149.29579 
L 632.317339 -150.968202 
L 634.928922 -152.640615 
L 637.598962 -154.313027 
L 640.278419 -155.985439 
L 642.913661 -157.657851 
L 645.453804 -159.330263 
L 647.857788 -161.002676 
L 650.100063 -162.675088 
L 652.173919 -164.3475 
L 654.091736 -166.019912 
L 655.881912 -167.692324 
L 657.58288 -169.364737 
L 659.235264 -171.037149 
L 660.873753 -172.709561 
L 662.520373 -174.381973 
L 664.180614 -176.054385 
L 665.843145 -177.726798 
L 667.483014 -179.39921 
L 669.067344 -181.071622 
L 670.562025 -182.744034 
L 671.93776 -184.416446 
L 673.174206 -186.088858 
L 674.2616 -187.761271 
L 675.200041 -189.433683 
L 675.997154 -191.106095 
L 676.66518 -192.778507 
L 677.218374 -194.450919 
L 677.671262 -196.123332 
L 678.03781 -197.795744 
L 678.331233 -199.468156 
L 678.563991 -201.140568 
L 678.747657 -202.81298 
L 678.892566 -204.485393 
L 679.007407 -206.157805 
L 679.099051 -207.830217 
L 679.17284 -209.502629 
L 679.233343 -211.175041 
L 679.285347 -212.847454 
L 679.334664 -214.519866 
L 679.388381 -216.192278 
L 679.45433 -217.86469 
L 679.539869 -219.537102 
L 679.650354 -221.209514 
L 679.787774 -222.881927 
L 679.950037 -224.554339 
L 680.131136 -226.226751 
L 680.322166 -227.899163 
L 680.512913 -229.571575 
L 680.693568 -231.243988 
L 680.856184 -232.9164 
L 680.99556 -234.588812 
L 681.109487 -236.261224 
L 681.198422 -237.933636 
L 681.596578 -237.933636 
L 681.596578 -237.933636 
L 681.685513 -236.261224 
L 681.79944 -234.588812 
L 681.938816 -232.9164 
L 682.101432 -231.243988 
L 682.282087 -229.571575 
L 682.472834 -227.899163 
L 682.663864 -226.226751 
L 682.844963 -224.554339 
L 683.007226 -222.881927 
L 683.144646 -221.209514 
L 683.255131 -219.537102 
L 683.34067 -217.86469 
L 683.406619 -216.192278 
L 683.460336 -214.519866 
L 683.509653 -212.847454 
L 683.561657 -211.175041 
L 683.62216 -209.502629 
L 683.695949 -207.830217 
L 683.787593 -206.157805 
L 683.902434 -204.485393 
L 684.047343 -202.81298 
L 684.231009 -201.140568 
L 684.463767 -199.468156 
L 684.75719 -197.795744 
L 685.123738 -196.123332 
L 685.576626 -194.450919 
L 686.12982 -192.778507 
L 686.797846 -191.106095 
L 687.594959 -189.433683 
L 688.5334 -187.761271 
L 689.620794 -186.088858 
L 690.85724 -184.416446 
L 692.232975 -182.744034 
L 693.727656 -181.071622 
L 695.311986 -179.39921 
L 696.951855 -177.726798 
L 698.614386 -176.054385 
L 700.274627 -174.381973 
L 701.921247 -172.709561 
L 703.559736 -171.037149 
L 705.21212 -169.364737 
L 706.913088 -167.692324 
L 708.703264 -166.019912 
L 710.621081 -164.3475 
L 712.694937 -162.675088 
L 714.937212 -161.002676 
L 717.341196 -159.330263 
L 719.881339 -157.657851 
L 722.516581 -155.985439 
L 725.196038 -154.313027 
L 727.866078 -152.640615 
L 730.477661 -150.968202 
L 732.992909 -149.29579 
L 735.389887 -147.623378 
L 737.664864 -145.950966 
L 739.831595 -144.278554 
L 741.917782 -142.606141 
L 743.959416 -140.933729 
L 745.994338 -139.261317 
L 748.056548 -137.588905 
L 750.17256 -135.916493 
L 752.360394 -134.244081 
L 754.63074 -132.571668 
L 756.98898 -130.899256 
L 759.43633 -129.226844 
L 761.96883 -127.554432 
L 764.573972 -125.88202 
L 767.226194 -124.209607 
L 769.883463 -122.537195 
L 772.487338 -120.864783 
L 774.967849 -119.192371 
L 777.252568 -117.519959 
L 779.277182 -115.847546 
L 780.993501 -114.175134 
L 782.370999 -112.502722 
L 783.389834 -110.83031 
L 784.026379 -109.157898 
L 784.2355 -107.485485 
L 783.935932 -105.813073 
L 783.005232 -104.140661 
L 781.288569 -102.468249 
L 778.621735 -100.795837 
L 774.864405 -99.123425 
L 769.936189 -97.451012 
L 763.846641 -95.7786 
L 756.711485 -94.106188 
L 748.750517 -92.433776 
L 740.267066 -90.761364 
L 731.61313 -89.088951 
L 723.147332 -87.416539 
L 715.193879 -85.744127 
L 708.009786 -84.071715 
L 701.765136 -82.399303 
L 696.537912 -80.72689 
L 692.321951 -79.054478 
L 689.044306 -77.382066 
L 686.587356 -75.709654 
L 684.81116 -74.037242 
L 683.572635 -72.364829 
z
" style="stroke: #484848; stroke-width: 3"/>
    </defs>
    <g clip-path="url(#p9504586b61)">
     <use xlink:href="#m734ed7d1a5" x="0" y="288" style="fill: #59a257; stroke: #484848; stroke-width: 3"/>
    </g>
   </g>
   <g id="PolyCollection_4">
    <defs>
     <path id="mfc9e03c20f" d="M 938.74231 -43.006364 
L 938.24269 -43.006364 
L 938.131447 -44.574069 
L 937.984927 -46.141774 
L 937.79765 -47.709479 
L 937.564864 -49.277184 
L 937.282624 -50.84489 
L 936.947453 -52.412595 
L 936.555488 -53.9803 
L 936.101113 -55.548005 
L 935.575255 -57.11571 
L 934.963669 -58.683416 
L 934.24566 -60.251121 
L 933.393756 -61.818826 
L 932.374727 -63.386531 
L 931.152177 -64.954236 
L 929.690585 -66.521942 
L 927.960323 -68.089647 
L 925.942867 -69.657352 
L 923.635204 -71.225057 
L 921.052428 -72.792762 
L 918.22775 -74.360468 
L 915.20952 -75.928173 
L 912.055401 -77.495878 
L 908.824422 -79.063583 
L 905.56808 -80.631289 
L 902.32206 -82.198994 
L 899.100195 -83.766699 
L 895.892117 -85.334404 
L 892.665592 -86.902109 
L 889.373767 -88.469815 
L 885.966672 -90.03752 
L 882.405388 -91.605225 
L 878.676495 -93.17293 
L 874.80405 -94.740635 
L 870.85641 -96.308341 
L 866.945884 -97.876046 
L 863.220349 -99.443751 
L 859.847358 -101.011456 
L 856.9927 -102.579161 
L 854.796475 -104.146867 
L 853.350339 -105.714572 
L 852.679547 -107.282277 
L 852.732755 -108.849982 
L 853.381462 -110.417687 
L 854.429624 -111.985393 
L 855.632611 -113.553098 
L 856.723491 -115.120803 
L 857.443709 -116.688508 
L 857.574586 -118.256213 
L 856.965803 -119.823919 
L 855.557042 -121.391624 
L 853.389428 -122.959329 
L 850.604377 -124.527034 
L 847.428947 -126.094739 
L 844.148793 -127.662445 
L 841.072085 -129.23015 
L 838.48972 -130.797855 
L 836.638423 -132.36556 
L 835.67325 -133.933265 
L 835.6545 -135.500971 
L 836.551143 -137.068676 
L 838.259378 -138.636381 
L 840.6316 -140.204086 
L 843.508863 -141.771791 
L 846.749547 -143.339497 
L 850.248331 -144.907202 
L 853.942485 -146.474907 
L 857.805926 -148.042612 
L 861.834484 -149.610317 
L 866.027644 -151.178023 
L 870.372225 -152.745728 
L 874.832212 -154.313433 
L 879.346763 -155.881138 
L 883.836041 -157.448843 
L 888.212563 -159.016549 
L 892.39471 -160.584254 
L 896.318995 -162.151959 
L 899.948409 -163.719664 
L 903.275436 -165.287369 
L 906.319655 -166.855075 
L 909.120943 -168.42278 
L 911.730065 -169.990485 
L 914.198623 -171.55819 
L 916.570222 -173.125895 
L 918.874195 -174.693601 
L 921.122609 -176.261306 
L 923.310579 -177.829011 
L 925.419363 -179.396716 
L 927.421306 -180.964421 
L 929.285538 -182.532127 
L 930.983385 -184.099832 
L 932.492677 -185.667537 
L 933.800478 -187.235242 
L 934.904088 -188.802947 
L 935.810526 -190.370653 
L 936.53484 -191.938358 
L 937.09776 -193.506063 
L 937.523147 -195.073768 
L 937.835636 -196.641474 
L 938.058734 -198.209179 
L 938.926266 -198.209179 
L 938.926266 -198.209179 
L 939.149364 -196.641474 
L 939.461853 -195.073768 
L 939.88724 -193.506063 
L 940.45016 -191.938358 
L 941.174474 -190.370653 
L 942.080912 -188.802947 
L 943.184522 -187.235242 
L 944.492323 -185.667537 
L 946.001615 -184.099832 
L 947.699462 -182.532127 
L 949.563694 -180.964421 
L 951.565637 -179.396716 
L 953.674421 -177.829011 
L 955.862391 -176.261306 
L 958.110805 -174.693601 
L 960.414778 -173.125895 
L 962.786377 -171.55819 
L 965.254935 -169.990485 
L 967.864057 -168.42278 
L 970.665345 -166.855075 
L 973.709564 -165.287369 
L 977.036591 -163.719664 
L 980.666005 -162.151959 
L 984.59029 -160.584254 
L 988.772437 -159.016549 
L 993.148959 -157.448843 
L 997.638237 -155.881138 
L 1002.152788 -154.313433 
L 1006.612775 -152.745728 
L 1010.957356 -151.178023 
L 1015.150516 -149.610317 
L 1019.179074 -148.042612 
L 1023.042515 -146.474907 
L 1026.736669 -144.907202 
L 1030.235453 -143.339497 
L 1033.476137 -141.771791 
L 1036.3534 -140.204086 
L 1038.725622 -138.636381 
L 1040.433857 -137.068676 
L 1041.3305 -135.500971 
L 1041.31175 -133.933265 
L 1040.346577 -132.36556 
L 1038.49528 -130.797855 
L 1035.912915 -129.23015 
L 1032.836207 -127.662445 
L 1029.556053 -126.094739 
L 1026.380623 -124.527034 
L 1023.595572 -122.959329 
L 1021.427958 -121.391624 
L 1020.019197 -119.823919 
L 1019.410414 -118.256213 
L 1019.541291 -116.688508 
L 1020.261509 -115.120803 
L 1021.352389 -113.553098 
L 1022.555376 -111.985393 
L 1023.603538 -110.417687 
L 1024.252245 -108.849982 
L 1024.305453 -107.282277 
L 1023.634661 -105.714572 
L 1022.188525 -104.146867 
L 1019.9923 -102.579161 
L 1017.137642 -101.011456 
L 1013.764651 -99.443751 
L 1010.039116 -97.876046 
L 1006.12859 -96.308341 
L 1002.18095 -94.740635 
L 998.308505 -93.17293 
L 994.579612 -91.605225 
L 991.018328 -90.03752 
L 987.611233 -88.469815 
L 984.319408 -86.902109 
L 981.092883 -85.334404 
L 977.884805 -83.766699 
L 974.66294 -82.198994 
L 971.41692 -80.631289 
L 968.160578 -79.063583 
L 964.929599 -77.495878 
L 961.77548 -75.928173 
L 958.75725 -74.360468 
L 955.932572 -72.792762 
L 953.349796 -71.225057 
L 951.042133 -69.657352 
L 949.024677 -68.089647 
L 947.294415 -66.521942 
L 945.832823 -64.954236 
L 944.610273 -63.386531 
L 943.591244 -61.818826 
L 942.73934 -60.251121 
L 942.021331 -58.683416 
L 941.409745 -57.11571 
L 940.883887 -55.548005 
L 940.429512 -53.9803 
L 940.037547 -52.412595 
L 939.702376 -50.84489 
L 939.420136 -49.277184 
L 939.18735 -47.709479 
L 939.000073 -46.141774 
L 938.853553 -44.574069 
L 938.74231 -43.006364 
z
" style="stroke: #484848; stroke-width: 3"/>
    </defs>
    <g clip-path="url(#p9504586b61)">
     <use xlink:href="#mfc9e03c20f" x="0" y="288" style="fill: #905998; stroke: #484848; stroke-width: 3"/>
    </g>
   </g>
   <g id="line2d_9">
    <path d="M 167.2075 206.168681 
L 167.2075 119.858223 
" clip-path="url(#p9504586b61)" style="fill: none; stroke: #484848; stroke-width: 4.5; stroke-linecap: round"/>
   </g>
   <g id="line2d_10">
    <path d="M 167.2075 184.664038 
L 167.2075 142.501219 
" clip-path="url(#p9504586b61)" style="fill: none; stroke: #484848; stroke-width: 13.5; stroke-linecap: round"/>
   </g>
   <g id="line2d_11">
    <path d="M 167.2075 162.66319 
" clip-path="url(#p9504586b61)" style="fill: none; stroke: #484848; stroke-width: 1.5; stroke-linecap: round"/>
    <defs>
     <path id="mdf701edfc3" d="M 5.625 0 
L -5.625 -0 
" style="stroke: #ffffff; stroke-width: 2.7"/>
    </defs>
    <g clip-path="url(#p9504586b61)">
     <use xlink:href="#mdf701edfc3" x="167.2075" y="162.66319" style="fill: #ffffff; stroke: #ffffff; stroke-width: 2.7"/>
    </g>
   </g>
   <g id="line2d_12">
    <path d="M 424.3025 202.72023 
L 424.3025 119.001551 
" clip-path="url(#p9504586b61)" style="fill: none; stroke: #484848; stroke-width: 4.5; stroke-linecap: round"/>
   </g>
   <g id="line2d_13">
    <path d="M 424.3025 185.883661 
L 424.3025 141.070537 
" clip-path="url(#p9504586b61)" style="fill: none; stroke: #484848; stroke-width: 13.5; stroke-linecap: round"/>
   </g>
   <g id="line2d_14">
    <path d="M 424.3025 164.067856 
" clip-path="url(#p9504586b61)" style="fill: none; stroke: #484848; stroke-width: 1.5; stroke-linecap: round"/>
    <g clip-path="url(#p9504586b61)">
     <use xlink:href="#mdf701edfc3" x="424.3025" y="164.067856" style="fill: #ffffff; stroke: #ffffff; stroke-width: 2.7"/>
    </g>
   </g>
   <g id="line2d_15">
    <path d="M 681.3975 198.265251 
L 681.3975 95.742287 
" clip-path="url(#p9504586b61)" style="fill: none; stroke: #484848; stroke-width: 4.5; stroke-linecap: round"/>
   </g>
   <g id="line2d_16">
    <path d="M 681.3975 183.939651 
L 681.3975 146.716106 
" clip-path="url(#p9504586b61)" style="fill: none; stroke: #484848; stroke-width: 13.5; stroke-linecap: round"/>
   </g>
   <g id="line2d_17">
    <path d="M 681.3975 168.981194 
" clip-path="url(#p9504586b61)" style="fill: none; stroke: #484848; stroke-width: 1.5; stroke-linecap: round"/>
    <g clip-path="url(#p9504586b61)">
     <use xlink:href="#mdf701edfc3" x="681.3975" y="168.981194" style="fill: #ffffff; stroke: #ffffff; stroke-width: 2.7"/>
    </g>
   </g>
   <g id="line2d_18">
    <path d="M 938.4925 227.623716 
L 938.4925 107.160741 
" clip-path="url(#p9504586b61)" style="fill: none; stroke: #484848; stroke-width: 4.5; stroke-linecap: round"/>
   </g>
   <g id="line2d_19">
    <path d="M 938.4925 183.04293 
L 938.4925 144.864704 
" clip-path="url(#p9504586b61)" style="fill: none; stroke: #484848; stroke-width: 13.5; stroke-linecap: round"/>
   </g>
   <g id="line2d_20">
    <path d="M 938.4925 159.329746 
" clip-path="url(#p9504586b61)" style="fill: none; stroke: #484848; stroke-width: 1.5; stroke-linecap: round"/>
    <g clip-path="url(#p9504586b61)">
     <use xlink:href="#mdf701edfc3" x="938.4925" y="159.329746" style="fill: #ffffff; stroke: #ffffff; stroke-width: 2.7"/>
    </g>
   </g>
   <g id="patch_3">
    <path d="M 38.66 254.74 
L 38.66 40.32 
" style="fill: none; stroke: #cccccc; stroke-width: 1.25; stroke-linejoin: miter; stroke-linecap: square"/>
   </g>
   <g id="patch_4">
    <path d="M 1067.04 254.74 
L 1067.04 40.32 
" style="fill: none; stroke: #cccccc; stroke-width: 1.25; stroke-linejoin: miter; stroke-linecap: square"/>
   </g>
   <g id="patch_5">
    <path d="M 38.66 254.74 
L 1067.04 254.74 
" style="fill: none; stroke: #cccccc; stroke-width: 1.25; stroke-linejoin: miter; stroke-linecap: square"/>
   </g>
   <g id="patch_6">
    <path d="M 38.66 40.32 
L 1067.04 40.32 
" style="fill: none; stroke: #cccccc; stroke-width: 1.25; stroke-linejoin: miter; stroke-linecap: square"/>
   </g>
  </g>
  <g id="text_13">
   <!-- Violin Plot of all Continuous Variables -->
   <g style="fill: #262626" transform="translate(400.766016 17.157656) scale(0.15 -0.15)">
    <defs>
     <path id="DejaVuSans-6e" d="M 3513 2113 
L 3513 0 
L 2938 0 
L 2938 2094 
Q 2938 2591 2744 2837 
Q 2550 3084 2163 3084 
Q 1697 3084 1428 2787 
Q 1159 2491 1159 1978 
L 1159 0 
L 581 0 
L 581 3500 
L 1159 3500 
L 1159 2956 
Q 1366 3272 1645 3428 
Q 1925 3584 2291 3584 
Q 2894 3584 3203 3211 
Q 3513 2838 3513 2113 
z
" transform="scale(0.015625)"/>
     <path id="DejaVuSans-20" transform="scale(0.015625)"/>
     <path id="DejaVuSans-50" d="M 1259 4147 
L 1259 2394 
L 2053 2394 
Q 2494 2394 2734 2622 
Q 2975 2850 2975 3272 
Q 2975 3691 2734 3919 
Q 2494 4147 2053 4147 
L 1259 4147 
z
M 628 4666 
L 2053 4666 
Q 2838 4666 3239 4311 
Q 3641 3956 3641 3272 
Q 3641 2581 3239 2228 
Q 2838 1875 2053 1875 
L 1259 1875 
L 1259 0 
L 628 0 
L 628 4666 
z
" transform="scale(0.015625)"/>
     <path id="DejaVuSans-74" d="M 1172 4494 
L 1172 3500 
L 2356 3500 
L 2356 3053 
L 1172 3053 
L 1172 1153 
Q 1172 725 1289 603 
Q 1406 481 1766 481 
L 2356 481 
L 2356 0 
L 1766 0 
Q 1100 0 847 248 
Q 594 497 594 1153 
L 594 3053 
L 172 3053 
L 172 3500 
L 594 3500 
L 594 4494 
L 1172 4494 
z
" transform="scale(0.015625)"/>
     <path id="DejaVuSans-66" d="M 2375 4863 
L 2375 4384 
L 1825 4384 
Q 1516 4384 1395 4259 
Q 1275 4134 1275 3809 
L 1275 3500 
L 2222 3500 
L 2222 3053 
L 1275 3053 
L 1275 0 
L 697 0 
L 697 3053 
L 147 3053 
L 147 3500 
L 697 3500 
L 697 3744 
Q 697 4328 969 4595 
Q 1241 4863 1831 4863 
L 2375 4863 
z
" transform="scale(0.015625)"/>
     <path id="DejaVuSans-43" d="M 4122 4306 
L 4122 3641 
Q 3803 3938 3442 4084 
Q 3081 4231 2675 4231 
Q 1875 4231 1450 3742 
Q 1025 3253 1025 2328 
Q 1025 1406 1450 917 
Q 1875 428 2675 428 
Q 3081 428 3442 575 
Q 3803 722 4122 1019 
L 4122 359 
Q 3791 134 3420 21 
Q 3050 -91 2638 -91 
Q 1578 -91 968 557 
Q 359 1206 359 2328 
Q 359 3453 968 4101 
Q 1578 4750 2638 4750 
Q 3056 4750 3426 4639 
Q 3797 4528 4122 4306 
z
" transform="scale(0.015625)"/>
     <path id="DejaVuSans-75" d="M 544 1381 
L 544 3500 
L 1119 3500 
L 1119 1403 
Q 1119 906 1312 657 
Q 1506 409 1894 409 
Q 2359 409 2629 706 
Q 2900 1003 2900 1516 
L 2900 3500 
L 3475 3500 
L 3475 0 
L 2900 0 
L 2900 538 
Q 2691 219 2414 64 
Q 2138 -91 1772 -91 
Q 1169 -91 856 284 
Q 544 659 544 1381 
z
M 1991 3584 
L 1991 3584 
z
" transform="scale(0.015625)"/>
     <path id="DejaVuSans-62" d="M 3116 1747 
Q 3116 2381 2855 2742 
Q 2594 3103 2138 3103 
Q 1681 3103 1420 2742 
Q 1159 2381 1159 1747 
Q 1159 1113 1420 752 
Q 1681 391 2138 391 
Q 2594 391 2855 752 
Q 3116 1113 3116 1747 
z
M 1159 2969 
Q 1341 3281 1617 3432 
Q 1894 3584 2278 3584 
Q 2916 3584 3314 3078 
Q 3713 2572 3713 1747 
Q 3713 922 3314 415 
Q 2916 -91 2278 -91 
Q 1894 -91 1617 61 
Q 1341 213 1159 525 
L 1159 0 
L 581 0 
L 581 4863 
L 1159 4863 
L 1159 2969 
z
" transform="scale(0.015625)"/>
    </defs>
    <use xlink:href="#DejaVuSans-56"/>
    <use xlink:href="#DejaVuSans-69" x="66.158203"/>
    <use xlink:href="#DejaVuSans-6f" x="93.941406"/>
    <use xlink:href="#DejaVuSans-6c" x="155.123047"/>
    <use xlink:href="#DejaVuSans-69" x="182.90625"/>
    <use xlink:href="#DejaVuSans-6e" x="210.689453"/>
    <use xlink:href="#DejaVuSans-20" x="274.068359"/>
    <use xlink:href="#DejaVuSans-50" x="305.855469"/>
    <use xlink:href="#DejaVuSans-6c" x="366.158203"/>
    <use xlink:href="#DejaVuSans-6f" x="393.941406"/>
    <use xlink:href="#DejaVuSans-74" x="455.123047"/>
    <use xlink:href="#DejaVuSans-20" x="494.332031"/>
    <use xlink:href="#DejaVuSans-6f" x="526.119141"/>
    <use xlink:href="#DejaVuSans-66" x="587.300781"/>
    <use xlink:href="#DejaVuSans-20" x="622.505859"/>
    <use xlink:href="#DejaVuSans-61" x="654.292969"/>
    <use xlink:href="#DejaVuSans-6c" x="715.572266"/>
    <use xlink:href="#DejaVuSans-6c" x="743.355469"/>
    <use xlink:href="#DejaVuSans-20" x="771.138672"/>
    <use xlink:href="#DejaVuSans-43" x="802.925781"/>
    <use xlink:href="#DejaVuSans-6f" x="872.75"/>
    <use xlink:href="#DejaVuSans-6e" x="933.931641"/>
    <use xlink:href="#DejaVuSans-74" x="997.310547"/>
    <use xlink:href="#DejaVuSans-69" x="1036.519531"/>
    <use xlink:href="#DejaVuSans-6e" x="1064.302734"/>
    <use xlink:href="#DejaVuSans-75" x="1127.681641"/>
    <use xlink:href="#DejaVuSans-6f" x="1191.060547"/>
    <use xlink:href="#DejaVuSans-75" x="1252.242188"/>
    <use xlink:href="#DejaVuSans-73" x="1315.621094"/>
    <use xlink:href="#DejaVuSans-20" x="1367.720703"/>
    <use xlink:href="#DejaVuSans-56" x="1399.507812"/>
    <use xlink:href="#DejaVuSans-61" x="1460.166016"/>
    <use xlink:href="#DejaVuSans-72" x="1521.445312"/>
    <use xlink:href="#DejaVuSans-69" x="1562.558594"/>
    <use xlink:href="#DejaVuSans-61" x="1590.341797"/>
    <use xlink:href="#DejaVuSans-62" x="1651.621094"/>
    <use xlink:href="#DejaVuSans-6c" x="1715.097656"/>
    <use xlink:href="#DejaVuSans-65" x="1742.880859"/>
    <use xlink:href="#DejaVuSans-73" x="1804.404297"/>
   </g>
  </g>
 </g>
 <defs>
  <clipPath id="p9504586b61">
   <rect x="38.66" y="40.32" width="1028.38" height="214.42"/>
  </clipPath>
 </defs>
</svg>
