<?xml version="1.0" encoding="utf-8" standalone="no"?>
<!DOCTYPE svg PUBLIC "-//W3C//DTD SVG 1.1//EN"
  "http://www.w3.org/Graphics/SVG/1.1/DTD/svg11.dtd">
<svg xmlns:xlink="http://www.w3.org/1999/xlink" width="1080pt" height="288pt" viewBox="0 0 1080 288" xmlns="http://www.w3.org/2000/svg" version="1.1">
 <metadata>
  <rdf:RDF xmlns:dc="http://purl.org/dc/elements/1.1/" xmlns:cc="http://creativecommons.org/ns#" xmlns:rdf="http://www.w3.org/1999/02/22-rdf-syntax-ns#">
   <cc:Work>
    <dc:type rdf:resource="http://purl.org/dc/dcmitype/StillImage"/>
    <dc:date>2024-01-24T13:29:41.586773</dc:date>
    <dc:format>image/svg+xml</dc:format>
    <dc:creator>
     <cc:Agent>
      <dc:title>Matplotlib v3.6.0, https://matplotlib.org/</dc:title>
     </cc:Agent>
    </dc:creator>
   </cc:Work>
  </rdf:RDF>
 </metadata>
 <defs>
  <style type="text/css">*{stroke-linejoin: round; stroke-linecap: butt}</style>
 </defs>
 <g id="figure_1">
  <g id="patch_1">
   <path d="M 0 288 
L 1080 288 
L 1080 0 
L 0 0 
z
" style="fill: #ffffff"/>
  </g>
  <g id="axes_1">
   <g id="patch_2">
    <path d="M 38.57 254.74 
L 1067.04 254.74 
L 1067.04 40.32 
L 38.57 40.32 
z
" style="fill: #ffffff"/>
   </g>
   <g id="matplotlib.axis_1">
    <g id="xtick_1">
     <g id="text_1">
      <!-- Age -->
      <g style="fill: #262626" transform="translate(199.343464 272.598281) scale(0.11 -0.11)">
       <defs>
        <path id="DejaVuSans-41" d="M 2188 4044 
L 1331 1722 
L 3047 1722 
L 2188 4044 
z
M 1831 4666 
L 2547 4666 
L 4325 0 
L 3669 0 
L 3244 1197 
L 1141 1197 
L 716 0 
L 50 0 
L 1831 4666 
z
" transform="scale(0.015625)"/>
        <path id="DejaVuSans-67" d="M 2906 1791 
Q 2906 2416 2648 2759 
Q 2391 3103 1925 3103 
Q 1463 3103 1205 2759 
Q 947 2416 947 1791 
Q 947 1169 1205 825 
Q 1463 481 1925 481 
Q 2391 481 2648 825 
Q 2906 1169 2906 1791 
z
M 3481 434 
Q 3481 -459 3084 -895 
Q 2688 -1331 1869 -1331 
Q 1566 -1331 1297 -1286 
Q 1028 -1241 775 -1147 
L 775 -588 
Q 1028 -725 1275 -790 
Q 1522 -856 1778 -856 
Q 2344 -856 2625 -561 
Q 2906 -266 2906 331 
L 2906 616 
Q 2728 306 2450 153 
Q 2172 0 1784 0 
Q 1141 0 747 490 
Q 353 981 353 1791 
Q 353 2603 747 3093 
Q 1141 3584 1784 3584 
Q 2172 3584 2450 3431 
Q 2728 3278 2906 2969 
L 2906 3500 
L 3481 3500 
L 3481 434 
z
" transform="scale(0.015625)"/>
        <path id="DejaVuSans-65" d="M 3597 1894 
L 3597 1613 
L 953 1613 
Q 991 1019 1311 708 
Q 1631 397 2203 397 
Q 2534 397 2845 478 
Q 3156 559 3463 722 
L 3463 178 
Q 3153 47 2828 -22 
Q 2503 -91 2169 -91 
Q 1331 -91 842 396 
Q 353 884 353 1716 
Q 353 2575 817 3079 
Q 1281 3584 2069 3584 
Q 2775 3584 3186 3129 
Q 3597 2675 3597 1894 
z
M 3022 2063 
Q 3016 2534 2758 2815 
Q 2500 3097 2075 3097 
Q 1594 3097 1305 2825 
Q 1016 2553 972 2059 
L 3022 2063 
z
" transform="scale(0.015625)"/>
       </defs>
       <use xlink:href="#DejaVuSans-41"/>
       <use xlink:href="#DejaVuSans-67" x="68.408203"/>
       <use xlink:href="#DejaVuSans-65" x="131.884766"/>
      </g>
     </g>
    </g>
    <g id="xtick_2">
     <g id="text_2">
      <!-- Fare -->
      <g style="fill: #262626" transform="translate(541.251563 272.598281) scale(0.11 -0.11)">
       <defs>
        <path id="DejaVuSans-46" d="M 628 4666 
L 3309 4666 
L 3309 4134 
L 1259 4134 
L 1259 2759 
L 3109 2759 
L 3109 2228 
L 1259 2228 
L 1259 0 
L 628 0 
L 628 4666 
z
" transform="scale(0.015625)"/>
        <path id="DejaVuSans-61" d="M 2194 1759 
Q 1497 1759 1228 1600 
Q 959 1441 959 1056 
Q 959 750 1161 570 
Q 1363 391 1709 391 
Q 2188 391 2477 730 
Q 2766 1069 2766 1631 
L 2766 1759 
L 2194 1759 
z
M 3341 1997 
L 3341 0 
L 2766 0 
L 2766 531 
Q 2569 213 2275 61 
Q 1981 -91 1556 -91 
Q 1019 -91 701 211 
Q 384 513 384 1019 
Q 384 1609 779 1909 
Q 1175 2209 1959 2209 
L 2766 2209 
L 2766 2266 
Q 2766 2663 2505 2880 
Q 2244 3097 1772 3097 
Q 1472 3097 1187 3025 
Q 903 2953 641 2809 
L 641 3341 
Q 956 3463 1253 3523 
Q 1550 3584 1831 3584 
Q 2591 3584 2966 3190 
Q 3341 2797 3341 1997 
z
" transform="scale(0.015625)"/>
        <path id="DejaVuSans-72" d="M 2631 2963 
Q 2534 3019 2420 3045 
Q 2306 3072 2169 3072 
Q 1681 3072 1420 2755 
Q 1159 2438 1159 1844 
L 1159 0 
L 581 0 
L 581 3500 
L 1159 3500 
L 1159 2956 
Q 1341 3275 1631 3429 
Q 1922 3584 2338 3584 
Q 2397 3584 2469 3576 
Q 2541 3569 2628 3553 
L 2631 2963 
z
" transform="scale(0.015625)"/>
       </defs>
       <use xlink:href="#DejaVuSans-46"/>
       <use xlink:href="#DejaVuSans-61" x="48.394531"/>
       <use xlink:href="#DejaVuSans-72" x="109.673828"/>
       <use xlink:href="#DejaVuSans-65" x="148.537109"/>
      </g>
     </g>
    </g>
    <g id="xtick_3">
     <g id="text_3">
      <!-- Embarked -->
      <g style="fill: #262626" transform="translate(867.811224 272.598281) scale(0.11 -0.11)">
       <defs>
        <path id="DejaVuSans-45" d="M 628 4666 
L 3578 4666 
L 3578 4134 
L 1259 4134 
L 1259 2753 
L 3481 2753 
L 3481 2222 
L 1259 2222 
L 1259 531 
L 3634 531 
L 3634 0 
L 628 0 
L 628 4666 
z
" transform="scale(0.015625)"/>
        <path id="DejaVuSans-6d" d="M 3328 2828 
Q 3544 3216 3844 3400 
Q 4144 3584 4550 3584 
Q 5097 3584 5394 3201 
Q 5691 2819 5691 2113 
L 5691 0 
L 5113 0 
L 5113 2094 
Q 5113 2597 4934 2840 
Q 4756 3084 4391 3084 
Q 3944 3084 3684 2787 
Q 3425 2491 3425 1978 
L 3425 0 
L 2847 0 
L 2847 2094 
Q 2847 2600 2669 2842 
Q 2491 3084 2119 3084 
Q 1678 3084 1418 2786 
Q 1159 2488 1159 1978 
L 1159 0 
L 581 0 
L 581 3500 
L 1159 3500 
L 1159 2956 
Q 1356 3278 1631 3431 
Q 1906 3584 2284 3584 
Q 2666 3584 2933 3390 
Q 3200 3197 3328 2828 
z
" transform="scale(0.015625)"/>
        <path id="DejaVuSans-62" d="M 3116 1747 
Q 3116 2381 2855 2742 
Q 2594 3103 2138 3103 
Q 1681 3103 1420 2742 
Q 1159 2381 1159 1747 
Q 1159 1113 1420 752 
Q 1681 391 2138 391 
Q 2594 391 2855 752 
Q 3116 1113 3116 1747 
z
M 1159 2969 
Q 1341 3281 1617 3432 
Q 1894 3584 2278 3584 
Q 2916 3584 3314 3078 
Q 3713 2572 3713 1747 
Q 3713 922 3314 415 
Q 2916 -91 2278 -91 
Q 1894 -91 1617 61 
Q 1341 213 1159 525 
L 1159 0 
L 581 0 
L 581 4863 
L 1159 4863 
L 1159 2969 
z
" transform="scale(0.015625)"/>
        <path id="DejaVuSans-6b" d="M 581 4863 
L 1159 4863 
L 1159 1991 
L 2875 3500 
L 3609 3500 
L 1753 1863 
L 3688 0 
L 2938 0 
L 1159 1709 
L 1159 0 
L 581 0 
L 581 4863 
z
" transform="scale(0.015625)"/>
        <path id="DejaVuSans-64" d="M 2906 2969 
L 2906 4863 
L 3481 4863 
L 3481 0 
L 2906 0 
L 2906 525 
Q 2725 213 2448 61 
Q 2172 -91 1784 -91 
Q 1150 -91 751 415 
Q 353 922 353 1747 
Q 353 2572 751 3078 
Q 1150 3584 1784 3584 
Q 2172 3584 2448 3432 
Q 2725 3281 2906 2969 
z
M 947 1747 
Q 947 1113 1208 752 
Q 1469 391 1925 391 
Q 2381 391 2643 752 
Q 2906 1113 2906 1747 
Q 2906 2381 2643 2742 
Q 2381 3103 1925 3103 
Q 1469 3103 1208 2742 
Q 947 2381 947 1747 
z
" transform="scale(0.015625)"/>
       </defs>
       <use xlink:href="#DejaVuSans-45"/>
       <use xlink:href="#DejaVuSans-6d" x="63.183594"/>
       <use xlink:href="#DejaVuSans-62" x="160.595703"/>
       <use xlink:href="#DejaVuSans-61" x="224.072266"/>
       <use xlink:href="#DejaVuSans-72" x="285.351562"/>
       <use xlink:href="#DejaVuSans-6b" x="326.464844"/>
       <use xlink:href="#DejaVuSans-65" x="380.75"/>
       <use xlink:href="#DejaVuSans-64" x="442.273438"/>
      </g>
     </g>
    </g>
   </g>
   <g id="matplotlib.axis_2">
    <g id="ytick_1">
     <g id="line2d_1">
      <path d="M 38.57 233.456329 
L 1067.04 233.456329 
" clip-path="url(#p218e1bd7a8)" style="fill: none; stroke: #cccccc; stroke-linecap: round"/>
     </g>
     <g id="text_4">
      <!-- −2 -->
      <g style="fill: #262626" transform="translate(12.853594 237.63547) scale(0.11 -0.11)">
       <defs>
        <path id="DejaVuSans-2212" d="M 678 2272 
L 4684 2272 
L 4684 1741 
L 678 1741 
L 678 2272 
z
" transform="scale(0.015625)"/>
        <path id="DejaVuSans-32" d="M 1228 531 
L 3431 531 
L 3431 0 
L 469 0 
L 469 531 
Q 828 903 1448 1529 
Q 2069 2156 2228 2338 
Q 2531 2678 2651 2914 
Q 2772 3150 2772 3378 
Q 2772 3750 2511 3984 
Q 2250 4219 1831 4219 
Q 1534 4219 1204 4116 
Q 875 4013 500 3803 
L 500 4441 
Q 881 4594 1212 4672 
Q 1544 4750 1819 4750 
Q 2544 4750 2975 4387 
Q 3406 4025 3406 3419 
Q 3406 3131 3298 2873 
Q 3191 2616 2906 2266 
Q 2828 2175 2409 1742 
Q 1991 1309 1228 531 
z
" transform="scale(0.015625)"/>
       </defs>
       <use xlink:href="#DejaVuSans-2212"/>
       <use xlink:href="#DejaVuSans-32" x="83.789062"/>
      </g>
     </g>
    </g>
    <g id="ytick_2">
     <g id="line2d_2">
      <path d="M 38.57 203.332766 
L 1067.04 203.332766 
" clip-path="url(#p218e1bd7a8)" style="fill: none; stroke: #cccccc; stroke-linecap: round"/>
     </g>
     <g id="text_5">
      <!-- 0 -->
      <g style="fill: #262626" transform="translate(22.07125 207.511907) scale(0.11 -0.11)">
       <defs>
        <path id="DejaVuSans-30" d="M 2034 4250 
Q 1547 4250 1301 3770 
Q 1056 3291 1056 2328 
Q 1056 1369 1301 889 
Q 1547 409 2034 409 
Q 2525 409 2770 889 
Q 3016 1369 3016 2328 
Q 3016 3291 2770 3770 
Q 2525 4250 2034 4250 
z
M 2034 4750 
Q 2819 4750 3233 4129 
Q 3647 3509 3647 2328 
Q 3647 1150 3233 529 
Q 2819 -91 2034 -91 
Q 1250 -91 836 529 
Q 422 1150 422 2328 
Q 422 3509 836 4129 
Q 1250 4750 2034 4750 
z
" transform="scale(0.015625)"/>
       </defs>
       <use xlink:href="#DejaVuSans-30"/>
      </g>
     </g>
    </g>
    <g id="ytick_3">
     <g id="line2d_3">
      <path d="M 38.57 173.209203 
L 1067.04 173.209203 
" clip-path="url(#p218e1bd7a8)" style="fill: none; stroke: #cccccc; stroke-linecap: round"/>
     </g>
     <g id="text_6">
      <!-- 2 -->
      <g style="fill: #262626" transform="translate(22.07125 177.388344) scale(0.11 -0.11)">
       <use xlink:href="#DejaVuSans-32"/>
      </g>
     </g>
    </g>
    <g id="ytick_4">
     <g id="line2d_4">
      <path d="M 38.57 143.08564 
L 1067.04 143.08564 
" clip-path="url(#p218e1bd7a8)" style="fill: none; stroke: #cccccc; stroke-linecap: round"/>
     </g>
     <g id="text_7">
      <!-- 4 -->
      <g style="fill: #262626" transform="translate(22.07125 147.264781) scale(0.11 -0.11)">
       <defs>
        <path id="DejaVuSans-34" d="M 2419 4116 
L 825 1625 
L 2419 1625 
L 2419 4116 
z
M 2253 4666 
L 3047 4666 
L 3047 1625 
L 3713 1625 
L 3713 1100 
L 3047 1100 
L 3047 0 
L 2419 0 
L 2419 1100 
L 313 1100 
L 313 1709 
L 2253 4666 
z
" transform="scale(0.015625)"/>
       </defs>
       <use xlink:href="#DejaVuSans-34"/>
      </g>
     </g>
    </g>
    <g id="ytick_5">
     <g id="line2d_5">
      <path d="M 38.57 112.962077 
L 1067.04 112.962077 
" clip-path="url(#p218e1bd7a8)" style="fill: none; stroke: #cccccc; stroke-linecap: round"/>
     </g>
     <g id="text_8">
      <!-- 6 -->
      <g style="fill: #262626" transform="translate(22.07125 117.141218) scale(0.11 -0.11)">
       <defs>
        <path id="DejaVuSans-36" d="M 2113 2584 
Q 1688 2584 1439 2293 
Q 1191 2003 1191 1497 
Q 1191 994 1439 701 
Q 1688 409 2113 409 
Q 2538 409 2786 701 
Q 3034 994 3034 1497 
Q 3034 2003 2786 2293 
Q 2538 2584 2113 2584 
z
M 3366 4563 
L 3366 3988 
Q 3128 4100 2886 4159 
Q 2644 4219 2406 4219 
Q 1781 4219 1451 3797 
Q 1122 3375 1075 2522 
Q 1259 2794 1537 2939 
Q 1816 3084 2150 3084 
Q 2853 3084 3261 2657 
Q 3669 2231 3669 1497 
Q 3669 778 3244 343 
Q 2819 -91 2113 -91 
Q 1303 -91 875 529 
Q 447 1150 447 2328 
Q 447 3434 972 4092 
Q 1497 4750 2381 4750 
Q 2619 4750 2861 4703 
Q 3103 4656 3366 4563 
z
" transform="scale(0.015625)"/>
       </defs>
       <use xlink:href="#DejaVuSans-36"/>
      </g>
     </g>
    </g>
    <g id="ytick_6">
     <g id="line2d_6">
      <path d="M 38.57 82.838514 
L 1067.04 82.838514 
" clip-path="url(#p218e1bd7a8)" style="fill: none; stroke: #cccccc; stroke-linecap: round"/>
     </g>
     <g id="text_9">
      <!-- 8 -->
      <g style="fill: #262626" transform="translate(22.07125 87.017655) scale(0.11 -0.11)">
       <defs>
        <path id="DejaVuSans-38" d="M 2034 2216 
Q 1584 2216 1326 1975 
Q 1069 1734 1069 1313 
Q 1069 891 1326 650 
Q 1584 409 2034 409 
Q 2484 409 2743 651 
Q 3003 894 3003 1313 
Q 3003 1734 2745 1975 
Q 2488 2216 2034 2216 
z
M 1403 2484 
Q 997 2584 770 2862 
Q 544 3141 544 3541 
Q 544 4100 942 4425 
Q 1341 4750 2034 4750 
Q 2731 4750 3128 4425 
Q 3525 4100 3525 3541 
Q 3525 3141 3298 2862 
Q 3072 2584 2669 2484 
Q 3125 2378 3379 2068 
Q 3634 1759 3634 1313 
Q 3634 634 3220 271 
Q 2806 -91 2034 -91 
Q 1263 -91 848 271 
Q 434 634 434 1313 
Q 434 1759 690 2068 
Q 947 2378 1403 2484 
z
M 1172 3481 
Q 1172 3119 1398 2916 
Q 1625 2713 2034 2713 
Q 2441 2713 2670 2916 
Q 2900 3119 2900 3481 
Q 2900 3844 2670 4047 
Q 2441 4250 2034 4250 
Q 1625 4250 1398 4047 
Q 1172 3844 1172 3481 
z
" transform="scale(0.015625)"/>
       </defs>
       <use xlink:href="#DejaVuSans-38"/>
      </g>
     </g>
    </g>
    <g id="ytick_7">
     <g id="line2d_7">
      <path d="M 38.57 52.714951 
L 1067.04 52.714951 
" clip-path="url(#p218e1bd7a8)" style="fill: none; stroke: #cccccc; stroke-linecap: round"/>
     </g>
     <g id="text_10">
      <!-- 10 -->
      <g style="fill: #262626" transform="translate(15.0725 56.894092) scale(0.11 -0.11)">
       <defs>
        <path id="DejaVuSans-31" d="M 794 531 
L 1825 531 
L 1825 4091 
L 703 3866 
L 703 4441 
L 1819 4666 
L 2450 4666 
L 2450 531 
L 3481 531 
L 3481 0 
L 794 0 
L 794 531 
z
" transform="scale(0.015625)"/>
       </defs>
       <use xlink:href="#DejaVuSans-31"/>
       <use xlink:href="#DejaVuSans-30" x="63.623047"/>
      </g>
     </g>
    </g>
   </g>
   <g id="PolyCollection_1">
    <defs>
     <path id="m739c986492" d="M 210.823751 -43.006364 
L 209.139582 -43.006364 
L 208.434586 -44.093977 
L 207.335823 -45.181591 
L 205.764402 -46.269205 
L 203.707648 -47.356818 
L 201.254244 -48.444432 
L 198.604897 -49.532046 
L 196.04469 -50.619659 
L 193.878776 -51.707273 
L 192.351682 -52.794887 
L 191.581305 -53.8825 
L 191.53383 -54.970114 
L 192.046652 -56.057728 
L 192.883401 -57.145341 
L 193.791565 -58.232955 
L 194.536534 -59.320569 
L 194.903734 -60.408182 
L 194.681712 -61.495796 
L 193.651193 -62.583409 
L 191.601183 -63.671023 
L 188.376073 -64.758637 
L 183.93729 -65.84625 
L 178.410826 -66.933864 
L 172.094045 -68.021478 
L 165.410427 -69.109091 
L 158.821286 -70.196705 
L 152.719059 -71.284319 
L 147.330317 -72.371932 
L 142.64849 -73.459546 
L 138.405278 -74.54716 
L 134.087298 -75.634773 
L 129.014047 -76.722387 
L 122.501731 -77.810001 
L 114.120191 -78.897614 
L 103.993114 -79.985228 
L 93.016878 -81.072842 
L 82.839777 -82.160455 
L 75.508733 -83.248069 
L 72.852333 -84.335683 
L 75.840222 -85.423296 
L 84.216814 -86.51091 
L 96.590361 -87.598524 
L 110.927744 -88.686137 
L 125.207733 -89.773751 
L 137.941921 -90.861365 
L 148.390119 -91.948978 
L 156.477014 -93.036592 
L 162.542575 -94.124206 
L 167.078503 -95.211819 
L 170.544942 -96.299433 
L 173.287797 -97.387047 
L 175.530909 -98.47466 
L 177.406118 -99.562274 
L 178.992832 -100.649888 
L 180.351365 -101.737501 
L 181.543829 -102.825115 
L 182.64199 -103.912729 
L 183.724226 -105.000342 
L 184.864733 -106.087956 
L 186.118777 -107.17557 
L 187.508906 -108.263183 
L 189.017766 -109.350797 
L 190.59165 -110.43841 
L 192.15477 -111.526024 
L 193.629358 -112.613638 
L 194.954395 -113.701251 
L 196.097299 -114.788865 
L 197.056976 -115.876479 
L 197.860103 -116.964092 
L 198.553545 -118.051706 
L 199.194894 -119.13932 
L 199.841898 -120.226933 
L 200.541362 -121.314547 
L 201.318939 -122.402161 
L 202.17222 -123.489774 
L 203.069881 -124.577388 
L 203.958788 -125.665002 
L 204.778661 -126.752615 
L 205.48064 -127.840229 
L 206.043253 -128.927843 
L 206.478883 -130.015456 
L 206.82727 -131.10307 
L 207.138514 -132.190684 
L 207.453347 -133.278297 
L 207.789533 -134.365911 
L 208.139593 -135.453525 
L 208.479042 -136.541138 
L 208.779731 -137.628752 
L 209.021854 -138.716366 
L 209.200301 -139.803979 
L 209.324299 -140.891593 
L 209.411993 -141.979207 
L 209.482973 -143.06682 
L 209.551872 -144.154434 
L 209.625142 -145.242048 
L 209.701549 -146.329661 
L 209.775322 -147.417275 
L 209.840019 -148.504889 
L 209.891373 -149.592502 
L 209.928326 -150.680116 
L 210.035007 -150.680116 
L 210.035007 -150.680116 
L 210.071961 -149.592502 
L 210.123315 -148.504889 
L 210.188012 -147.417275 
L 210.261784 -146.329661 
L 210.338191 -145.242048 
L 210.411461 -144.154434 
L 210.48036 -143.06682 
L 210.551341 -141.979207 
L 210.639034 -140.891593 
L 210.763032 -139.803979 
L 210.941479 -138.716366 
L 211.183602 -137.628752 
L 211.484291 -136.541138 
L 211.82374 -135.453525 
L 212.1738 -134.365911 
L 212.509986 -133.278297 
L 212.82482 -132.190684 
L 213.136064 -131.10307 
L 213.48445 -130.015456 
L 213.920081 -128.927843 
L 214.482693 -127.840229 
L 215.184673 -126.752615 
L 216.004545 -125.665002 
L 216.893452 -124.577388 
L 217.791114 -123.489774 
L 218.644395 -122.402161 
L 219.421972 -121.314547 
L 220.121436 -120.226933 
L 220.768439 -119.13932 
L 221.409789 -118.051706 
L 222.103231 -116.964092 
L 222.906357 -115.876479 
L 223.866034 -114.788865 
L 225.008938 -113.701251 
L 226.333975 -112.613638 
L 227.808564 -111.526024 
L 229.371683 -110.43841 
L 230.945567 -109.350797 
L 232.454427 -108.263183 
L 233.844556 -107.17557 
L 235.0986 -106.087956 
L 236.239107 -105.000342 
L 237.321344 -103.912729 
L 238.419504 -102.825115 
L 239.611968 -101.737501 
L 240.970501 -100.649888 
L 242.557215 -99.562274 
L 244.432424 -98.47466 
L 246.675537 -97.387047 
L 249.418391 -96.299433 
L 252.88483 -95.211819 
L 257.420758 -94.124206 
L 263.48632 -93.036592 
L 271.573215 -91.948978 
L 282.021413 -90.861365 
L 294.7556 -89.773751 
L 309.03559 -88.686137 
L 323.372972 -87.598524 
L 335.746519 -86.51091 
L 344.123112 -85.423296 
L 347.111 -84.335683 
L 344.4546 -83.248069 
L 337.123556 -82.160455 
L 326.946456 -81.072842 
L 315.970219 -79.985228 
L 305.843142 -78.897614 
L 297.461602 -77.810001 
L 290.949287 -76.722387 
L 285.876036 -75.634773 
L 281.558056 -74.54716 
L 277.314844 -73.459546 
L 272.633016 -72.371932 
L 267.244274 -71.284319 
L 261.142047 -70.196705 
L 254.552906 -69.109091 
L 247.869288 -68.021478 
L 241.552507 -66.933864 
L 236.026043 -65.84625 
L 231.587261 -64.758637 
L 228.36215 -63.671023 
L 226.31214 -62.583409 
L 225.281621 -61.495796 
L 225.059599 -60.408182 
L 225.426799 -59.320569 
L 226.171769 -58.232955 
L 227.079932 -57.145341 
L 227.916681 -56.057728 
L 228.429503 -54.970114 
L 228.382028 -53.8825 
L 227.611651 -52.794887 
L 226.084557 -51.707273 
L 223.918644 -50.619659 
L 221.358436 -49.532046 
L 218.709089 -48.444432 
L 216.255686 -47.356818 
L 214.198931 -46.269205 
L 212.62751 -45.181591 
L 211.528747 -44.093977 
L 210.823751 -43.006364 
z
" style="stroke: #484848; stroke-width: 3"/>
    </defs>
    <g clip-path="url(#p218e1bd7a8)">
     <use xlink:href="#m739c986492" x="0" y="288" style="fill: #cb3335; stroke: #484848; stroke-width: 3"/>
    </g>
   </g>
   <g id="PolyCollection_2">
    <defs>
     <path id="m9c696aa63d" d="M 556.209911 -67.162947 
L 549.400089 -67.162947 
L 543.014811 -68.887903 
L 529.341568 -70.61286 
L 505.872197 -72.337816 
L 474.214648 -74.062773 
L 442.009586 -75.787729 
L 420.05935 -77.512685 
L 415.675667 -79.237642 
L 428.186377 -80.962598 
L 450.669694 -82.687555 
L 475.215958 -84.412511 
L 496.531407 -86.137468 
L 512.409974 -87.862424 
L 522.832058 -89.587381 
L 528.988758 -91.312337 
L 532.38638 -93.037294 
L 534.251192 -94.76225 
L 535.478049 -96.487207 
L 536.799666 -98.212163 
L 538.706573 -99.937119 
L 541.196536 -101.662076 
L 543.783925 -103.387032 
L 545.88634 -105.111989 
L 547.244789 -106.836945 
L 548.007106 -108.561902 
L 548.475412 -110.286858 
L 548.83219 -112.011815 
L 549.092887 -113.736771 
L 549.233411 -115.461728 
L 549.297047 -117.186684 
L 549.395759 -118.911641 
L 549.648214 -120.636597 
L 550.109024 -122.361553 
L 550.729693 -124.08651 
L 551.383771 -125.811466 
L 551.938886 -127.536423 
L 552.313079 -129.261379 
L 552.479495 -130.986336 
L 552.441723 -132.711292 
L 552.221196 -134.436249 
L 551.868998 -136.161205 
L 551.475828 -137.886162 
L 551.151739 -139.611118 
L 550.9831 -141.336075 
L 550.995791 -143.061031 
L 551.140449 -144.785987 
L 551.307467 -146.510944 
L 551.380609 -148.2359 
L 551.311773 -149.960857 
L 551.165006 -151.685813 
L 551.085184 -153.41077 
L 551.199079 -155.135726 
L 551.520096 -156.860683 
L 551.941311 -158.585639 
L 552.322323 -160.310596 
L 552.582022 -162.035552 
L 552.720134 -163.760509 
L 552.77844 -165.485465 
L 552.798172 -167.210421 
L 552.803559 -168.935378 
L 552.804751 -170.660334 
L 552.804965 -172.385291 
L 552.804996 -174.110247 
L 552.805 -175.835204 
L 552.805 -177.56016 
L 552.805 -179.285117 
L 552.805 -181.010073 
L 552.805 -182.73503 
L 552.805 -184.459986 
L 552.805 -186.184943 
L 552.805 -187.909899 
L 552.805 -189.634855 
L 552.805 -191.359812 
L 552.805 -193.084768 
L 552.805 -194.809725 
L 552.805 -196.534681 
L 552.805 -198.259638 
L 552.805 -199.984594 
L 552.805 -201.709551 
L 552.805 -203.434507 
L 552.805 -205.159464 
L 552.805 -206.88442 
L 552.805 -208.609377 
L 552.804999 -210.334333 
L 552.804988 -212.059289 
L 552.804911 -213.784246 
L 552.804466 -215.509202 
L 552.802379 -217.234159 
L 552.79446 -218.959115 
L 552.770243 -220.684072 
L 552.711023 -222.409028 
L 552.596651 -224.133985 
L 552.426248 -225.858941 
L 552.240436 -227.583898 
L 552.114974 -229.308854 
L 552.11347 -231.033811 
L 552.236736 -232.758767 
L 552.422102 -234.483723 
L 552.593452 -236.20868 
L 552.709164 -237.933636 
L 552.900836 -237.933636 
L 552.900836 -237.933636 
L 553.016548 -236.20868 
L 553.187898 -234.483723 
L 553.373264 -232.758767 
L 553.49653 -231.033811 
L 553.495026 -229.308854 
L 553.369564 -227.583898 
L 553.183752 -225.858941 
L 553.013349 -224.133985 
L 552.898977 -222.409028 
L 552.839757 -220.684072 
L 552.81554 -218.959115 
L 552.807621 -217.234159 
L 552.805534 -215.509202 
L 552.805089 -213.784246 
L 552.805012 -212.059289 
L 552.805001 -210.334333 
L 552.805 -208.609377 
L 552.805 -206.88442 
L 552.805 -205.159464 
L 552.805 -203.434507 
L 552.805 -201.709551 
L 552.805 -199.984594 
L 552.805 -198.259638 
L 552.805 -196.534681 
L 552.805 -194.809725 
L 552.805 -193.084768 
L 552.805 -191.359812 
L 552.805 -189.634855 
L 552.805 -187.909899 
L 552.805 -186.184943 
L 552.805 -184.459986 
L 552.805 -182.73503 
L 552.805 -181.010073 
L 552.805 -179.285117 
L 552.805 -177.56016 
L 552.805 -175.835204 
L 552.805004 -174.110247 
L 552.805035 -172.385291 
L 552.805249 -170.660334 
L 552.806441 -168.935378 
L 552.811828 -167.210421 
L 552.83156 -165.485465 
L 552.889866 -163.760509 
L 553.027978 -162.035552 
L 553.287677 -160.310596 
L 553.668689 -158.585639 
L 554.089904 -156.860683 
L 554.410921 -155.135726 
L 554.524816 -153.41077 
L 554.444994 -151.685813 
L 554.298227 -149.960857 
L 554.229391 -148.2359 
L 554.302533 -146.510944 
L 554.469551 -144.785987 
L 554.614209 -143.061031 
L 554.6269 -141.336075 
L 554.458261 -139.611118 
L 554.134172 -137.886162 
L 553.741002 -136.161205 
L 553.388804 -134.436249 
L 553.168277 -132.711292 
L 553.130505 -130.986336 
L 553.296921 -129.261379 
L 553.671114 -127.536423 
L 554.226229 -125.811466 
L 554.880307 -124.08651 
L 555.500976 -122.361553 
L 555.961786 -120.636597 
L 556.214241 -118.911641 
L 556.312953 -117.186684 
L 556.376589 -115.461728 
L 556.517113 -113.736771 
L 556.77781 -112.011815 
L 557.134588 -110.286858 
L 557.602894 -108.561902 
L 558.365211 -106.836945 
L 559.72366 -105.111989 
L 561.826075 -103.387032 
L 564.413464 -101.662076 
L 566.903427 -99.937119 
L 568.810334 -98.212163 
L 570.131951 -96.487207 
L 571.358808 -94.76225 
L 573.22362 -93.037294 
L 576.621242 -91.312337 
L 582.777942 -89.587381 
L 593.200026 -87.862424 
L 609.078593 -86.137468 
L 630.394042 -84.412511 
L 654.940306 -82.687555 
L 677.423623 -80.962598 
L 689.934333 -79.237642 
L 685.55065 -77.512685 
L 663.600414 -75.787729 
L 631.395352 -74.062773 
L 599.737803 -72.337816 
L 576.268432 -70.61286 
L 562.595189 -68.887903 
L 556.209911 -67.162947 
z
" style="stroke: #484848; stroke-width: 3"/>
    </defs>
    <g clip-path="url(#p218e1bd7a8)">
     <use xlink:href="#m9c696aa63d" x="0" y="288" style="fill: #477ca8; stroke: #484848; stroke-width: 3"/>
    </g>
   </g>
   <g id="PolyCollection_3">
    <defs>
     <path id="m01cf9b6eb0" d="M 914.191149 -68.338569 
L 877.065518 -68.338569 
L 870.199964 -68.973846 
L 861.720436 -69.609124 
L 851.614311 -70.244401 
L 840.013679 -70.879678 
L 827.222104 -71.514955 
L 813.723289 -72.150233 
L 800.165414 -72.78551 
L 787.318331 -73.420787 
L 776.005736 -74.056064 
L 767.019684 -74.691342 
L 761.029425 -75.326619 
L 758.499 -75.961896 
L 759.627662 -76.597174 
L 764.323739 -77.232451 
L 772.21671 -77.867728 
L 782.705293 -78.503005 
L 795.032912 -79.138283 
L 808.377402 -79.77356 
L 821.940284 -80.408837 
L 835.022386 -81.044114 
L 847.076506 -81.679392 
L 857.733009 -82.314669 
L 866.799445 -82.949946 
L 874.239319 -83.585223 
L 880.137476 -84.220501 
L 884.659976 -84.855778 
L 888.015227 -85.491055 
L 890.421089 -86.126332 
L 892.080372 -86.76161 
L 893.165088 -87.396887 
L 893.808423 -88.032164 
L 894.10265 -88.667441 
L 894.101162 -89.302719 
L 893.823125 -89.937996 
L 893.259827 -90.573273 
L 892.38234 -91.20855 
L 891.150448 -91.843828 
L 889.522897 -92.479105 
L 887.468775 -93.114382 
L 884.979368 -93.749659 
L 882.079287 -94.384937 
L 878.835146 -95.020214 
L 875.359878 -95.655491 
L 871.810965 -96.290769 
L 868.381624 -96.926046 
L 865.285077 -97.561323 
L 862.733452 -98.1966 
L 860.914114 -98.831878 
L 859.967064 -99.467155 
L 859.9672 -100.102432 
L 860.914569 -100.737709 
L 862.734373 -101.372987 
L 865.286746 -102.008264 
L 868.384511 -102.643541 
L 871.815809 -103.278818 
L 875.367807 -103.914096 
L 878.847847 -104.549373 
L 882.099236 -105.18465 
L 885.010189 -105.819927 
L 887.515772 -106.455205 
L 889.593918 -107.090482 
L 891.257294 -107.725759 
L 892.543078 -108.361036 
L 893.50251 -108.996314 
L 894.19162 -109.631591 
L 894.663925 -110.266868 
L 894.965358 -110.902145 
L 895.131259 -111.537423 
L 895.185041 -112.1727 
L 895.138103 -112.807977 
L 894.990663 -113.443254 
L 894.733293 -114.078532 
L 894.34916 -114.713809 
L 893.817006 -115.349086 
L 893.114956 -115.984363 
L 892.22509 -116.619641 
L 891.138522 -117.254918 
L 889.860476 -117.890195 
L 888.414584 -118.525473 
L 886.845507 -119.16075 
L 885.219019 -119.796027 
L 883.618971 -120.431304 
L 882.140997 -121.066582 
L 880.883488 -121.701859 
L 879.936928 -122.337136 
L 879.373185 -122.972413 
L 879.236501 -123.607691 
L 879.53776 -124.242968 
L 880.253054 -124.878245 
L 881.326822 -125.513522 
L 882.678974 -126.1488 
L 884.214748 -126.784077 
L 885.835613 -127.419354 
L 887.449487 -128.054631 
L 888.978845 -128.689909 
L 890.365837 -129.325186 
L 891.574155 -129.960463 
L 892.587999 -130.59574 
L 893.408873 -131.231018 
L 897.847793 -131.231018 
L 897.847793 -131.231018 
L 898.668668 -130.59574 
L 899.682512 -129.960463 
L 900.89083 -129.325186 
L 902.277822 -128.689909 
L 903.80718 -128.054631 
L 905.421054 -127.419354 
L 907.041919 -126.784077 
L 908.577693 -126.1488 
L 909.929844 -125.513522 
L 911.003612 -124.878245 
L 911.718907 -124.242968 
L 912.020166 -123.607691 
L 911.883482 -122.972413 
L 911.319739 -122.337136 
L 910.373179 -121.701859 
L 909.11567 -121.066582 
L 907.637696 -120.431304 
L 906.037648 -119.796027 
L 904.41116 -119.16075 
L 902.842082 -118.525473 
L 901.39619 -117.890195 
L 900.118145 -117.254918 
L 899.031577 -116.619641 
L 898.14171 -115.984363 
L 897.439661 -115.349086 
L 896.907507 -114.713809 
L 896.523373 -114.078532 
L 896.266004 -113.443254 
L 896.118563 -112.807977 
L 896.071626 -112.1727 
L 896.125407 -111.537423 
L 896.291309 -110.902145 
L 896.592742 -110.266868 
L 897.065047 -109.631591 
L 897.754156 -108.996314 
L 898.713589 -108.361036 
L 899.999373 -107.725759 
L 901.662749 -107.090482 
L 903.740895 -106.455205 
L 906.246477 -105.819927 
L 909.15743 -105.18465 
L 912.40882 -104.549373 
L 915.88886 -103.914096 
L 919.440858 -103.278818 
L 922.872156 -102.643541 
L 925.96992 -102.008264 
L 928.522294 -101.372987 
L 930.342098 -100.737709 
L 931.289466 -100.102432 
L 931.289602 -99.467155 
L 930.342553 -98.831878 
L 928.523215 -98.1966 
L 925.97159 -97.561323 
L 922.875042 -96.926046 
L 919.445702 -96.290769 
L 915.896789 -95.655491 
L 912.42152 -95.020214 
L 909.17738 -94.384937 
L 906.277299 -93.749659 
L 903.787892 -93.114382 
L 901.73377 -92.479105 
L 900.106219 -91.843828 
L 898.874327 -91.20855 
L 897.996839 -90.573273 
L 897.433542 -89.937996 
L 897.155505 -89.302719 
L 897.154017 -88.667441 
L 897.448244 -88.032164 
L 898.091579 -87.396887 
L 899.176295 -86.76161 
L 900.835577 -86.126332 
L 903.24144 -85.491055 
L 906.596691 -84.855778 
L 911.119191 -84.220501 
L 917.017348 -83.585223 
L 924.457221 -82.949946 
L 933.523657 -82.314669 
L 944.180161 -81.679392 
L 956.23428 -81.044114 
L 969.316383 -80.408837 
L 982.879265 -79.77356 
L 996.223755 -79.138283 
L 1008.551373 -78.503005 
L 1019.039957 -77.867728 
L 1026.932928 -77.232451 
L 1031.629005 -76.597174 
L 1032.757667 -75.961896 
L 1030.227242 -75.326619 
L 1024.236982 -74.691342 
L 1015.25093 -74.056064 
L 1003.938335 -73.420787 
L 991.091253 -72.78551 
L 977.533377 -72.150233 
L 964.034563 -71.514955 
L 951.242987 -70.879678 
L 939.642355 -70.244401 
L 929.536231 -69.609124 
L 921.056702 -68.973846 
L 914.191149 -68.338569 
z
" style="stroke: #484848; stroke-width: 3"/>
    </defs>
    <g clip-path="url(#p218e1bd7a8)">
     <use xlink:href="#m01cf9b6eb0" x="0" y="288" style="fill: #59a257; stroke: #484848; stroke-width: 3"/>
    </g>
   </g>
   <g id="line2d_8">
    <path d="M 209.981667 234.261531 
L 209.981667 175.182162 
" clip-path="url(#p218e1bd7a8)" style="fill: none; stroke: #484848; stroke-width: 4.5; stroke-linecap: round"/>
   </g>
   <g id="line2d_9">
    <path d="M 209.981667 212.25157 
L 209.981667 197.192123 
" clip-path="url(#p218e1bd7a8)" style="fill: none; stroke: #484848; stroke-width: 13.5; stroke-linecap: round"/>
   </g>
   <g id="line2d_10">
    <path d="M 209.981667 203.332766 
" clip-path="url(#p218e1bd7a8)" style="fill: none; stroke: #484848; stroke-width: 1.5; stroke-linecap: round"/>
    <defs>
     <path id="me77bf77d3f" d="M 5.625 0 
L -5.625 -0 
" style="stroke: #ffffff; stroke-width: 2.7"/>
    </defs>
    <g clip-path="url(#p218e1bd7a8)">
     <use xlink:href="#me77bf77d3f" x="209.981667" y="203.332766" style="fill: #ffffff; stroke: #ffffff; stroke-width: 2.7"/>
    </g>
   </g>
   <g id="line2d_11">
    <path d="M 552.805 213.093669 
L 552.805 193.392557 
" clip-path="url(#p218e1bd7a8)" style="fill: none; stroke: #484848; stroke-width: 4.5; stroke-linecap: round"/>
   </g>
   <g id="line2d_12">
    <path d="M 552.805 210.696074 
L 552.805 203.697754 
" clip-path="url(#p218e1bd7a8)" style="fill: none; stroke: #484848; stroke-width: 13.5; stroke-linecap: round"/>
   </g>
   <g id="line2d_13">
    <path d="M 552.805 208.712688 
" clip-path="url(#p218e1bd7a8)" style="fill: none; stroke: #484848; stroke-width: 1.5; stroke-linecap: round"/>
    <g clip-path="url(#p218e1bd7a8)">
     <use xlink:href="#me77bf77d3f" x="552.805" y="208.712688" style="fill: #ffffff; stroke: #ffffff; stroke-width: 2.7"/>
    </g>
   </g>
   <g id="line2d_14">
    <path d="M 895.628333 211.918047 
L 895.628333 164.512366 
" clip-path="url(#p218e1bd7a8)" style="fill: none; stroke: #484848; stroke-width: 4.5; stroke-linecap: round"/>
   </g>
   <g id="line2d_15">
    <path d="M 895.628333 211.918047 
L 895.628333 188.215207 
" clip-path="url(#p218e1bd7a8)" style="fill: none; stroke: #484848; stroke-width: 13.5; stroke-linecap: round"/>
   </g>
   <g id="line2d_16">
    <path d="M 895.628333 211.918047 
" clip-path="url(#p218e1bd7a8)" style="fill: none; stroke: #484848; stroke-width: 1.5; stroke-linecap: round"/>
    <g clip-path="url(#p218e1bd7a8)">
     <use xlink:href="#me77bf77d3f" x="895.628333" y="211.918047" style="fill: #ffffff; stroke: #ffffff; stroke-width: 2.7"/>
    </g>
   </g>
   <g id="patch_3">
    <path d="M 38.57 254.74 
L 38.57 40.32 
" style="fill: none; stroke: #cccccc; stroke-width: 1.25; stroke-linejoin: miter; stroke-linecap: square"/>
   </g>
   <g id="patch_4">
    <path d="M 1067.04 254.74 
L 1067.04 40.32 
" style="fill: none; stroke: #cccccc; stroke-width: 1.25; stroke-linejoin: miter; stroke-linecap: square"/>
   </g>
   <g id="patch_5">
    <path d="M 38.57 254.74 
L 1067.04 254.74 
" style="fill: none; stroke: #cccccc; stroke-width: 1.25; stroke-linejoin: miter; stroke-linecap: square"/>
   </g>
   <g id="patch_6">
    <path d="M 38.57 40.32 
L 1067.04 40.32 
" style="fill: none; stroke: #cccccc; stroke-width: 1.25; stroke-linejoin: miter; stroke-linecap: square"/>
   </g>
  </g>
  <g id="text_11">
   <!-- Violin Plot of all Continuous Variables -->
   <g style="fill: #262626" transform="translate(400.766016 17.157656) scale(0.15 -0.15)">
    <defs>
     <path id="DejaVuSans-56" d="M 1831 0 
L 50 4666 
L 709 4666 
L 2188 738 
L 3669 4666 
L 4325 4666 
L 2547 0 
L 1831 0 
z
" transform="scale(0.015625)"/>
     <path id="DejaVuSans-69" d="M 603 3500 
L 1178 3500 
L 1178 0 
L 603 0 
L 603 3500 
z
M 603 4863 
L 1178 4863 
L 1178 4134 
L 603 4134 
L 603 4863 
z
" transform="scale(0.015625)"/>
     <path id="DejaVuSans-6f" d="M 1959 3097 
Q 1497 3097 1228 2736 
Q 959 2375 959 1747 
Q 959 1119 1226 758 
Q 1494 397 1959 397 
Q 2419 397 2687 759 
Q 2956 1122 2956 1747 
Q 2956 2369 2687 2733 
Q 2419 3097 1959 3097 
z
M 1959 3584 
Q 2709 3584 3137 3096 
Q 3566 2609 3566 1747 
Q 3566 888 3137 398 
Q 2709 -91 1959 -91 
Q 1206 -91 779 398 
Q 353 888 353 1747 
Q 353 2609 779 3096 
Q 1206 3584 1959 3584 
z
" transform="scale(0.015625)"/>
     <path id="DejaVuSans-6c" d="M 603 4863 
L 1178 4863 
L 1178 0 
L 603 0 
L 603 4863 
z
" transform="scale(0.015625)"/>
     <path id="DejaVuSans-6e" d="M 3513 2113 
L 3513 0 
L 2938 0 
L 2938 2094 
Q 2938 2591 2744 2837 
Q 2550 3084 2163 3084 
Q 1697 3084 1428 2787 
Q 1159 2491 1159 1978 
L 1159 0 
L 581 0 
L 581 3500 
L 1159 3500 
L 1159 2956 
Q 1366 3272 1645 3428 
Q 1925 3584 2291 3584 
Q 2894 3584 3203 3211 
Q 3513 2838 3513 2113 
z
" transform="scale(0.015625)"/>
     <path id="DejaVuSans-20" transform="scale(0.015625)"/>
     <path id="DejaVuSans-50" d="M 1259 4147 
L 1259 2394 
L 2053 2394 
Q 2494 2394 2734 2622 
Q 2975 2850 2975 3272 
Q 2975 3691 2734 3919 
Q 2494 4147 2053 4147 
L 1259 4147 
z
M 628 4666 
L 2053 4666 
Q 2838 4666 3239 4311 
Q 3641 3956 3641 3272 
Q 3641 2581 3239 2228 
Q 2838 1875 2053 1875 
L 1259 1875 
L 1259 0 
L 628 0 
L 628 4666 
z
" transform="scale(0.015625)"/>
     <path id="DejaVuSans-74" d="M 1172 4494 
L 1172 3500 
L 2356 3500 
L 2356 3053 
L 1172 3053 
L 1172 1153 
Q 1172 725 1289 603 
Q 1406 481 1766 481 
L 2356 481 
L 2356 0 
L 1766 0 
Q 1100 0 847 248 
Q 594 497 594 1153 
L 594 3053 
L 172 3053 
L 172 3500 
L 594 3500 
L 594 4494 
L 1172 4494 
z
" transform="scale(0.015625)"/>
     <path id="DejaVuSans-66" d="M 2375 4863 
L 2375 4384 
L 1825 4384 
Q 1516 4384 1395 4259 
Q 1275 4134 1275 3809 
L 1275 3500 
L 2222 3500 
L 2222 3053 
L 1275 3053 
L 1275 0 
L 697 0 
L 697 3053 
L 147 3053 
L 147 3500 
L 697 3500 
L 697 3744 
Q 697 4328 969 4595 
Q 1241 4863 1831 4863 
L 2375 4863 
z
" transform="scale(0.015625)"/>
     <path id="DejaVuSans-43" d="M 4122 4306 
L 4122 3641 
Q 3803 3938 3442 4084 
Q 3081 4231 2675 4231 
Q 1875 4231 1450 3742 
Q 1025 3253 1025 2328 
Q 1025 1406 1450 917 
Q 1875 428 2675 428 
Q 3081 428 3442 575 
Q 3803 722 4122 1019 
L 4122 359 
Q 3791 134 3420 21 
Q 3050 -91 2638 -91 
Q 1578 -91 968 557 
Q 359 1206 359 2328 
Q 359 3453 968 4101 
Q 1578 4750 2638 4750 
Q 3056 4750 3426 4639 
Q 3797 4528 4122 4306 
z
" transform="scale(0.015625)"/>
     <path id="DejaVuSans-75" d="M 544 1381 
L 544 3500 
L 1119 3500 
L 1119 1403 
Q 1119 906 1312 657 
Q 1506 409 1894 409 
Q 2359 409 2629 706 
Q 2900 1003 2900 1516 
L 2900 3500 
L 3475 3500 
L 3475 0 
L 2900 0 
L 2900 538 
Q 2691 219 2414 64 
Q 2138 -91 1772 -91 
Q 1169 -91 856 284 
Q 544 659 544 1381 
z
M 1991 3584 
L 1991 3584 
z
" transform="scale(0.015625)"/>
     <path id="DejaVuSans-73" d="M 2834 3397 
L 2834 2853 
Q 2591 2978 2328 3040 
Q 2066 3103 1784 3103 
Q 1356 3103 1142 2972 
Q 928 2841 928 2578 
Q 928 2378 1081 2264 
Q 1234 2150 1697 2047 
L 1894 2003 
Q 2506 1872 2764 1633 
Q 3022 1394 3022 966 
Q 3022 478 2636 193 
Q 2250 -91 1575 -91 
Q 1294 -91 989 -36 
Q 684 19 347 128 
L 347 722 
Q 666 556 975 473 
Q 1284 391 1588 391 
Q 1994 391 2212 530 
Q 2431 669 2431 922 
Q 2431 1156 2273 1281 
Q 2116 1406 1581 1522 
L 1381 1569 
Q 847 1681 609 1914 
Q 372 2147 372 2553 
Q 372 3047 722 3315 
Q 1072 3584 1716 3584 
Q 2034 3584 2315 3537 
Q 2597 3491 2834 3397 
z
" transform="scale(0.015625)"/>
    </defs>
    <use xlink:href="#DejaVuSans-56"/>
    <use xlink:href="#DejaVuSans-69" x="66.158203"/>
    <use xlink:href="#DejaVuSans-6f" x="93.941406"/>
    <use xlink:href="#DejaVuSans-6c" x="155.123047"/>
    <use xlink:href="#DejaVuSans-69" x="182.90625"/>
    <use xlink:href="#DejaVuSans-6e" x="210.689453"/>
    <use xlink:href="#DejaVuSans-20" x="274.068359"/>
    <use xlink:href="#DejaVuSans-50" x="305.855469"/>
    <use xlink:href="#DejaVuSans-6c" x="366.158203"/>
    <use xlink:href="#DejaVuSans-6f" x="393.941406"/>
    <use xlink:href="#DejaVuSans-74" x="455.123047"/>
    <use xlink:href="#DejaVuSans-20" x="494.332031"/>
    <use xlink:href="#DejaVuSans-6f" x="526.119141"/>
    <use xlink:href="#DejaVuSans-66" x="587.300781"/>
    <use xlink:href="#DejaVuSans-20" x="622.505859"/>
    <use xlink:href="#DejaVuSans-61" x="654.292969"/>
    <use xlink:href="#DejaVuSans-6c" x="715.572266"/>
    <use xlink:href="#DejaVuSans-6c" x="743.355469"/>
    <use xlink:href="#DejaVuSans-20" x="771.138672"/>
    <use xlink:href="#DejaVuSans-43" x="802.925781"/>
    <use xlink:href="#DejaVuSans-6f" x="872.75"/>
    <use xlink:href="#DejaVuSans-6e" x="933.931641"/>
    <use xlink:href="#DejaVuSans-74" x="997.310547"/>
    <use xlink:href="#DejaVuSans-69" x="1036.519531"/>
    <use xlink:href="#DejaVuSans-6e" x="1064.302734"/>
    <use xlink:href="#DejaVuSans-75" x="1127.681641"/>
    <use xlink:href="#DejaVuSans-6f" x="1191.060547"/>
    <use xlink:href="#DejaVuSans-75" x="1252.242188"/>
    <use xlink:href="#DejaVuSans-73" x="1315.621094"/>
    <use xlink:href="#DejaVuSans-20" x="1367.720703"/>
    <use xlink:href="#DejaVuSans-56" x="1399.507812"/>
    <use xlink:href="#DejaVuSans-61" x="1460.166016"/>
    <use xlink:href="#DejaVuSans-72" x="1521.445312"/>
    <use xlink:href="#DejaVuSans-69" x="1562.558594"/>
    <use xlink:href="#DejaVuSans-61" x="1590.341797"/>
    <use xlink:href="#DejaVuSans-62" x="1651.621094"/>
    <use xlink:href="#DejaVuSans-6c" x="1715.097656"/>
    <use xlink:href="#DejaVuSans-65" x="1742.880859"/>
    <use xlink:href="#DejaVuSans-73" x="1804.404297"/>
   </g>
  </g>
 </g>
 <defs>
  <clipPath id="p218e1bd7a8">
   <rect x="38.57" y="40.32" width="1028.47" height="214.42"/>
  </clipPath>
 </defs>
</svg>
